HighlandSans-Bold.ufo
<glyph name="exclam" format="1">
  <advance width="1228"/>
  <unicode hex="0021"/>
  <outline>
    <contour>
      <point x="499" y="1209" type="line" smooth="yes"/>
      <point x="469" y="1209"/>
      <point x="455" y="1194"/>
      <point x="458" y="1159" type="curve" smooth="yes"/>
      <point x="511" y="582" type="line" smooth="yes"/>
      <point x="516" y="531"/>
      <point x="556" y="504"/>
      <point x="614" y="504" type="curve" smooth="yes"/>
      <point x="672" y="504"/>
      <point x="712" y="531"/>
      <point x="717" y="582" type="curve" smooth="yes"/>
      <point x="770" y="1159" type="line" smooth="yes"/>
      <point x="773" y="1194"/>
      <point x="759" y="1209"/>
      <point x="729" y="1209" type="curve" smooth="yes"/>
    </contour>
    <contour>
      <point x="505" y="330"/>
      <point x="459" y="312"/>
      <point x="459" y="267" type="curve" smooth="yes"/>
      <point x="459" y="53" type="line" smooth="yes"/>
      <point x="459" y="8"/>
      <point x="505" y="-10"/>
      <point x="614" y="-10" type="curve" smooth="yes"/>
      <point x="723" y="-10"/>
      <point x="769" y="8"/>
      <point x="769" y="53" type="curve" smooth="yes"/>
      <point x="769" y="267" type="line" smooth="yes"/>
      <point x="769" y="312"/>
      <point x="723" y="330"/>
      <point x="614" y="330" type="curve" smooth="yes"/>
    </contour>
  </outline>
</glyph>
<glyph name="ampersand" format="1">
  <advance width="1228"/>
  <unicode hex="0026"/>
  <outline>
    <contour>
      <point x="369" y="1209"/>
      <point x="232" y="1064"/>
      <point x="232" y="866" type="curve" smooth="yes"/>
      <point x="232" y="737"/>
      <point x="296" y="627"/>
      <point x="384" y="535" type="curve" smooth="yes"/>
      <point x="896" y="1" type="line" smooth="yes"/>
      <point x="930" y="-34"/>
      <point x="965" y="-30"/>
      <point x="1045" y="20" type="curve" smooth="yes"/>
      <point x="1124" y="69"/>
      <point x="1124" y="107"/>
      <point x="1090" y="143" type="curve" smooth="yes"/>
      <point x="588" y="666" type="line" smooth="yes"/>
      <point x="525" y="731"/>
      <point x="485" y="790"/>
      <point x="485" y="858" type="curve" smooth="yes"/>
      <point x="485" y="937"/>
      <point x="544" y="982"/>
      <point x="618" y="982" type="curve" smooth="yes"/>
      <point x="688" y="982"/>
      <point x="751" y="965"/>
      <point x="814" y="931" type="curve" smooth="yes"/>
      <point x="844" y="915"/>
      <point x="876" y="929"/>
      <point x="910" y="1005" type="curve" smooth="yes"/>
      <point x="945" y="1080"/>
      <point x="933" y="1118"/>
      <point x="895" y="1139" type="curve" smooth="yes"/>
      <point x="817" y="1183"/>
      <point x="717" y="1209"/>
      <point x="610" y="1209" type="curve" smooth="yes"/>
    </contour>
    <contour>
      <point x="228" y="598"/>
      <point x="131" y="484"/>
      <point x="131" y="320" type="curve" smooth="yes"/>
      <point x="131" y="119"/>
      <point x="271" y="-22"/>
      <point x="490" y="-22" type="curve" smooth="yes"/>
      <point x="783" y="-22"/>
      <point x="942" y="192"/>
      <point x="1061" y="561" type="curve" smooth="yes"/>
      <point x="1075" y="603"/>
      <point x="1065" y="632"/>
      <point x="974" y="660" type="curve" smooth="yes"/>
      <point x="880" y="688"/>
      <point x="848" y="676"/>
      <point x="833" y="634" type="curve" smooth="yes"/>
      <point x="753" y="379"/>
      <point x="655" y="205"/>
      <point x="510" y="205" type="curve" smooth="yes"/>
      <point x="430" y="205"/>
      <point x="379" y="254"/>
      <point x="379" y="330" type="curve" smooth="yes"/>
      <point x="379" y="417"/>
      <point x="435" y="474"/>
      <point x="541" y="535" type="curve"/>
      <point x="417" y="687" type="line"/>
    </contour>
  </outline>
</glyph>
<glyph name="slash" format="1">
  <advance width="1228"/>
  <unicode hex="002F"/>
  <outline>
    <contour>
      <point x="875" y="1399"/>
      <point x="843" y="1388"/>
      <point x="833" y="1365" type="curve" smooth="yes"/>
      <point x="171" y="-243" type="line" smooth="yes"/>
      <point x="143" y="-312"/>
      <point x="242" y="-360"/>
      <point x="319" y="-360" type="curve" smooth="yes"/>
      <point x="354" y="-360"/>
      <point x="385" y="-350"/>
      <point x="395" y="-327" type="curve" smooth="yes"/>
      <point x="1057" y="1281" type="line" smooth="yes"/>
      <point x="1086" y="1352"/>
      <point x="988" y="1399"/>
      <point x="911" y="1399" type="curve" smooth="yes"/>
    </contour>
  </outline>
</glyph>
<glyph name="two" format="1">
  <advance width="1228"/>
  <unicode hex="0032"/>
  <outline>
    <contour>
      <point x="477" y="1209"/>
      <point x="355" y="1172"/>
      <point x="247" y="1112" type="curve" smooth="yes"/>
      <point x="205" y="1089"/>
      <point x="185" y="1052"/>
      <point x="212" y="974" type="curve" smooth="yes"/>
      <point x="240" y="894"/>
      <point x="279" y="877"/>
      <point x="320" y="897" type="curve" smooth="yes"/>
      <point x="417" y="945"/>
      <point x="512" y="972"/>
      <point x="601" y="972" type="curve" smooth="yes"/>
      <point x="706" y="972"/>
      <point x="762" y="916"/>
      <point x="762" y="824" type="curve" smooth="yes"/>
      <point x="762" y="747"/>
      <point x="705" y="688"/>
      <point x="605" y="586" type="curve" smooth="yes"/>
      <point x="212" y="196" type="line" smooth="yes"/>
      <point x="194" y="179"/>
      <point x="188" y="157"/>
      <point x="188" y="103" type="curve" smooth="yes"/>
      <point x="188" y="18"/>
      <point x="206" y="0"/>
      <point x="251" y="0" type="curve" smooth="yes"/>
      <point x="569" y="0" type="line"/>
      <point x="569" y="215" type="line"/>
      <point x="814" y="455" type="line" smooth="yes"/>
      <point x="938" y="576"/>
      <point x="1016" y="692"/>
      <point x="1016" y="834" type="curve" smooth="yes"/>
      <point x="1016" y="1060"/>
      <point x="877" y="1209"/>
      <point x="610" y="1209" type="curve" smooth="yes"/>
    </contour>
    <contour>
      <point x="459" y="235" type="line"/>
      <point x="459" y="0" type="line"/>
      <point x="991" y="0" type="line"/>
      <point x="1036" y="0"/>
      <point x="1054" y="22"/>
      <point x="1054" y="117" type="curve" smooth="yes"/>
      <point x="1054" y="212"/>
      <point x="1036" y="235"/>
      <point x="991" y="235" type="curve" smooth="yes"/>
    </contour>
  </outline>
</glyph>
<glyph name="three" format="1">
  <advance width="1228"/>
  <unicode hex="0033"/>
  <outline>
    <contour>
      <point x="449" y="1209"/>
      <point x="331" y="1185"/>
      <point x="231" y="1132" type="curve" smooth="yes"/>
      <point x="193" y="1112"/>
      <point x="181" y="1071"/>
      <point x="211" y="994" type="curve" smooth="yes"/>
      <point x="241" y="917"/>
      <point x="275" y="898"/>
      <point x="306" y="913" type="curve" smooth="yes"/>
      <point x="391" y="953"/>
      <point x="486" y="977"/>
      <point x="574" y="977" type="curve" smooth="yes"/>
      <point x="684" y="977"/>
      <point x="747" y="938"/>
      <point x="747" y="853" type="curve" smooth="yes"/>
      <point x="747" y="763"/>
      <point x="689" y="723"/>
      <point x="571" y="723" type="curve" smooth="yes"/>
      <point x="465" y="723" type="line" smooth="yes"/>
      <point x="420" y="723"/>
      <point x="402" y="699"/>
      <point x="402" y="610" type="curve" smooth="yes"/>
      <point x="402" y="521"/>
      <point x="420" y="498"/>
      <point x="465" y="498" type="curve" smooth="yes"/>
      <point x="598" y="498" type="line" smooth="yes"/>
      <point x="709" y="498"/>
      <point x="768" y="452"/>
      <point x="768" y="360" type="curve" smooth="yes"/>
      <point x="768" y="266"/>
      <point x="697" y="215"/>
      <point x="554" y="215" type="curve" smooth="yes"/>
      <point x="466" y="215"/>
      <point x="371" y="238"/>
      <point x="286" y="278" type="curve" smooth="yes"/>
      <point x="255" y="293"/>
      <point x="219" y="277"/>
      <point x="190" y="195" type="curve" smooth="yes"/>
      <point x="161" y="112"/>
      <point x="173" y="75"/>
      <point x="211" y="55" type="curve" smooth="yes"/>
      <point x="311" y="2"/>
      <point x="431" y="-22"/>
      <point x="554" y="-22" type="curve" smooth="yes"/>
      <point x="852" y="-22"/>
      <point x="1036" y="102"/>
      <point x="1036" y="356" type="curve" smooth="yes"/>
      <point x="1036" y="487"/>
      <point x="967" y="575"/>
      <point x="860" y="624" type="curve"/>
      <point x="948" y="670"/>
      <point x="1001" y="749"/>
      <point x="1001" y="869" type="curve" smooth="yes"/>
      <point x="1001" y="1090"/>
      <point x="848" y="1209"/>
      <point x="580" y="1209" type="curve" smooth="yes"/>
    </contour>
  </outline>
</glyph>
<glyph name="four" format="1">
  <advance width="1228"/>
  <unicode hex="0034"/>
  <outline>
    <contour>
      <point x="686" y="1209"/>
      <point x="644" y="1184"/>
      <point x="609" y="1140" type="curve"/>
      <point x="137" y="476" type="line" smooth="yes"/>
      <point x="125" y="459"/>
      <point x="120" y="428"/>
      <point x="120" y="377" type="curve" smooth="yes"/>
      <point x="120" y="282"/>
      <point x="138" y="260"/>
      <point x="183" y="260" type="curve" smooth="yes"/>
      <point x="1035" y="260" type="line" smooth="yes"/>
      <point x="1080" y="260"/>
      <point x="1098" y="282"/>
      <point x="1098" y="377" type="curve" smooth="yes"/>
      <point x="1098" y="472"/>
      <point x="1080" y="495"/>
      <point x="1035" y="495" type="curve" smooth="yes"/>
      <point x="409" y="495" type="line"/>
      <point x="660" y="856" type="line"/>
      <point x="633" y="332" type="line"/>
      <point x="633" y="63" type="line" smooth="yes"/>
      <point x="633" y="18"/>
      <point x="651" y="0"/>
      <point x="696" y="0" type="curve" smooth="yes"/>
      <point x="820" y="0" type="line" smooth="yes"/>
      <point x="865" y="0"/>
      <point x="883" y="18"/>
      <point x="883" y="63" type="curve" smooth="yes"/>
      <point x="883" y="1119" type="line" smooth="yes"/>
      <point x="883" y="1173"/>
      <point x="844" y="1209"/>
      <point x="758" y="1209" type="curve" smooth="yes"/>
    </contour>
  </outline>
</glyph>
<glyph name="five" format="1">
  <advance width="1228"/>
  <unicode hex="0035"/>
  <outline>
    <contour>
      <point x="313" y="1187" type="line" smooth="yes"/>
      <point x="267" y="1187"/>
      <point x="251" y="1168"/>
      <point x="248" y="1122" type="curve" smooth="yes"/>
      <point x="215" y="562" type="line" smooth="yes"/>
      <point x="212" y="516"/>
      <point x="244" y="497"/>
      <point x="330" y="497" type="curve" smooth="yes"/>
      <point x="354" y="497"/>
      <point x="386" y="503"/>
      <point x="412" y="513" type="curve" smooth="yes"/>
      <point x="469" y="534"/>
      <point x="537" y="549"/>
      <point x="604" y="549" type="curve" smooth="yes"/>
      <point x="715" y="549"/>
      <point x="778" y="490"/>
      <point x="778" y="384" type="curve" smooth="yes"/>
      <point x="778" y="268"/>
      <point x="694" y="215"/>
      <point x="574" y="215" type="curve" smooth="yes"/>
      <point x="480" y="215"/>
      <point x="379" y="245"/>
      <point x="289" y="290" type="curve" smooth="yes"/>
      <point x="258" y="305"/>
      <point x="224" y="287"/>
      <point x="194" y="208" type="curve" smooth="yes"/>
      <point x="163" y="127"/>
      <point x="176" y="88"/>
      <point x="214" y="67" type="curve" smooth="yes"/>
      <point x="317" y="11"/>
      <point x="447" y="-22"/>
      <point x="574" y="-22" type="curve" smooth="yes"/>
      <point x="862" y="-22"/>
      <point x="1046" y="107"/>
      <point x="1046" y="381" type="curve" smooth="yes"/>
      <point x="1046" y="614"/>
      <point x="911" y="776"/>
      <point x="657" y="776" type="curve" smooth="yes"/>
      <point x="591" y="776"/>
      <point x="527" y="763"/>
      <point x="465" y="739" type="curve"/>
      <point x="479" y="972" type="line"/>
      <point x="621" y="1187" type="line"/>
    </contour>
    <contour>
      <point x="349" y="1187" type="line"/>
      <point x="349" y="952" type="line"/>
      <point x="921" y="952" type="line" smooth="yes"/>
      <point x="966" y="952"/>
      <point x="984" y="974"/>
      <point x="984" y="1069" type="curve" smooth="yes"/>
      <point x="984" y="1164"/>
      <point x="966" y="1187"/>
      <point x="921" y="1187" type="curve" smooth="yes"/>
    </contour>
  </outline>
</glyph>
<glyph name="question" format="1">
  <advance width="1228"/>
  <unicode hex="003F"/>
  <outline>
    <contour>
      <point x="490" y="1209"/>
      <point x="387" y="1183"/>
      <point x="304" y="1144" type="curve" smooth="yes"/>
      <point x="264" y="1125"/>
      <point x="253" y="1090"/>
      <point x="284" y="1013" type="curve" smooth="yes"/>
      <point x="314" y="936"/>
      <point x="344" y="923"/>
      <point x="376" y="936" type="curve" smooth="yes"/>
      <point x="442" y="964"/>
      <point x="515" y="982"/>
      <point x="588" y="982" type="curve" smooth="yes"/>
      <point x="692" y="982"/>
      <point x="747" y="944"/>
      <point x="747" y="867" type="curve" smooth="yes"/>
      <point x="747" y="797"/>
      <point x="700" y="760"/>
      <point x="605" y="744" type="curve" smooth="yes"/>
      <point x="502" y="727" type="line" smooth="yes"/>
      <point x="477" y="723"/>
      <point x="470" y="702"/>
      <point x="471" y="676" type="curve" smooth="yes"/>
      <point x="483" y="467" type="line" smooth="yes"/>
      <point x="485" y="436"/>
      <point x="507" y="419"/>
      <point x="584" y="419" type="curve" smooth="yes"/>
      <point x="661" y="419"/>
      <point x="683" y="436"/>
      <point x="685" y="467" type="curve" smooth="yes"/>
      <point x="691" y="543" type="line"/>
      <point x="895" y="598"/>
      <point x="998" y="685"/>
      <point x="998" y="874" type="curve" smooth="yes"/>
      <point x="998" y="1082"/>
      <point x="858" y="1209"/>
      <point x="590" y="1209" type="curve" smooth="yes"/>
    </contour>
    <contour>
      <point x="482" y="290"/>
      <point x="439" y="272"/>
      <point x="439" y="227" type="curve" smooth="yes"/>
      <point x="439" y="53" type="line" smooth="yes"/>
      <point x="439" y="8"/>
      <point x="482" y="-10"/>
      <point x="584" y="-10" type="curve" smooth="yes"/>
      <point x="686" y="-10"/>
      <point x="729" y="8"/>
      <point x="729" y="53" type="curve" smooth="yes"/>
      <point x="729" y="227" type="line" smooth="yes"/>
      <point x="729" y="272"/>
      <point x="686" y="290"/>
      <point x="584" y="290" type="curve" smooth="yes"/>
    </contour>
  </outline>
</glyph>
<glyph name="D" format="1">
  <advance width="1228"/>
  <unicode hex="0044"/>
  <outline>
    <contour>
      <point x="223" y="1187" type="line" smooth="yes"/>
      <point x="178" y="1187"/>
      <point x="160" y="1169"/>
      <point x="160" y="1124" type="curve" smooth="yes"/>
      <point x="160" y="63" type="line" smooth="yes"/>
      <point x="160" y="18"/>
      <point x="178" y="0"/>
      <point x="223" y="0" type="curve" smooth="yes"/>
      <point x="574" y="0" type="line" smooth="yes"/>
      <point x="924" y="0"/>
      <point x="1132" y="214"/>
      <point x="1132" y="594" type="curve" smooth="yes"/>
      <point x="1132" y="974"/>
      <point x="924" y="1187"/>
      <point x="574" y="1187" type="curve" smooth="yes"/>
    </contour>
    <contour>
      <point x="761" y="952"/>
      <point x="870" y="832"/>
      <point x="870" y="594" type="curve" smooth="yes"/>
      <point x="870" y="356"/>
      <point x="761" y="235"/>
      <point x="554" y="235" type="curve" smooth="yes"/>
      <point x="410" y="235" type="line"/>
      <point x="410" y="952" type="line"/>
      <point x="554" y="952" type="line" smooth="yes"/>
    </contour>
  </outline>
</glyph>
<glyph name="E" format="1">
  <advance width="1228"/>
  <unicode hex="0045"/>
  <outline>
    <contour>
      <point x="263" y="1187" type="line"/>
      <point x="218" y="1187"/>
      <point x="200" y="1169"/>
      <point x="200" y="1124" type="curve" smooth="yes"/>
      <point x="200" y="63" type="line" smooth="yes"/>
      <point x="200" y="18"/>
      <point x="218" y="0"/>
      <point x="263" y="0" type="curve"/>
      <point x="450" y="0" type="line"/>
      <point x="450" y="1187" type="line"/>
    </contour>
    <contour>
      <point x="345" y="235" type="line"/>
      <point x="345" y="0" type="line"/>
      <point x="997" y="0" type="line" smooth="yes"/>
      <point x="1042" y="0"/>
      <point x="1060" y="22"/>
      <point x="1060" y="117" type="curve" smooth="yes"/>
      <point x="1060" y="212"/>
      <point x="1042" y="235"/>
      <point x="997" y="235" type="curve" smooth="yes"/>
    </contour>
    <contour>
      <point x="345" y="729" type="line"/>
      <point x="345" y="494" type="line"/>
      <point x="814" y="494" type="line" smooth="yes"/>
      <point x="859" y="494"/>
      <point x="877" y="516"/>
      <point x="877" y="611" type="curve" smooth="yes"/>
      <point x="877" y="706"/>
      <point x="859" y="729"/>
      <point x="814" y="729" type="curve" smooth="yes"/>
    </contour>
    <contour>
      <point x="345" y="1187" type="line"/>
      <point x="345" y="952" type="line"/>
      <point x="977" y="952" type="line" smooth="yes"/>
      <point x="1022" y="952"/>
      <point x="1040" y="974"/>
      <point x="1040" y="1069" type="curve" smooth="yes"/>
      <point x="1040" y="1164"/>
      <point x="1022" y="1187"/>
      <point x="977" y="1187" type="curve" smooth="yes"/>
    </contour>
  </outline>
</glyph>
<glyph name="F" format="1">
  <advance width="1228"/>
  <unicode hex="0046"/>
  <outline>
    <contour>
      <point x="283" y="1187" type="line" smooth="yes"/>
      <point x="238" y="1187"/>
      <point x="220" y="1169"/>
      <point x="220" y="1124" type="curve" smooth="yes"/>
      <point x="220" y="63" type="line" smooth="yes"/>
      <point x="220" y="18"/>
      <point x="238" y="0"/>
      <point x="283" y="0" type="curve" smooth="yes"/>
      <point x="407" y="0" type="line" smooth="yes"/>
      <point x="452" y="0"/>
      <point x="470" y="18"/>
      <point x="470" y="63" type="curve" smooth="yes"/>
      <point x="470" y="1187" type="line"/>
    </contour>
    <contour>
      <point x="361" y="667" type="line"/>
      <point x="361" y="432" type="line"/>
      <point x="904" y="432" type="line" smooth="yes"/>
      <point x="949" y="432"/>
      <point x="967" y="454"/>
      <point x="967" y="549" type="curve" smooth="yes"/>
      <point x="967" y="644"/>
      <point x="949" y="667"/>
      <point x="904" y="667" type="curve" smooth="yes"/>
    </contour>
    <contour>
      <point x="361" y="1187" type="line"/>
      <point x="361" y="952" type="line"/>
      <point x="987" y="952" type="line" smooth="yes"/>
      <point x="1032" y="952"/>
      <point x="1050" y="974"/>
      <point x="1050" y="1069" type="curve" smooth="yes"/>
      <point x="1050" y="1164"/>
      <point x="1032" y="1187"/>
      <point x="987" y="1187" type="curve" smooth="yes"/>
    </contour>
  </outline>
</glyph>
<glyph name="I" format="1">
  <advance width="1228"/>
  <unicode hex="0049"/>
  <outline>
    <contour>
      <point x="489" y="1078" type="line"/>
      <point x="489" y="109" type="line"/>
      <point x="739" y="109" type="line"/>
      <point x="739" y="1078" type="line"/>
    </contour>
    <contour>
      <point x="233" y="225" type="line"/>
      <point x="188" y="225"/>
      <point x="170" y="202"/>
      <point x="170" y="112" type="curve" smooth="yes"/>
      <point x="170" y="22"/>
      <point x="188" y="0"/>
      <point x="233" y="0" type="curve" smooth="yes"/>
      <point x="995" y="0" type="line" smooth="yes"/>
      <point x="1040" y="0"/>
      <point x="1058" y="22"/>
      <point x="1058" y="112" type="curve" smooth="yes"/>
      <point x="1058" y="202"/>
      <point x="1040" y="225"/>
      <point x="995" y="225" type="curve"/>
    </contour>
    <contour>
      <point x="253" y="1187" type="line" smooth="yes"/>
      <point x="208" y="1187"/>
      <point x="190" y="1164"/>
      <point x="190" y="1074" type="curve" smooth="yes"/>
      <point x="190" y="984"/>
      <point x="208" y="962"/>
      <point x="253" y="962" type="curve"/>
      <point x="975" y="962" type="line"/>
      <point x="1020" y="962"/>
      <point x="1038" y="984"/>
      <point x="1038" y="1074" type="curve" smooth="yes"/>
      <point x="1038" y="1164"/>
      <point x="1020" y="1187"/>
      <point x="975" y="1187" type="curve" smooth="yes"/>
    </contour>
  </outline>
</glyph>
<glyph name="K" format="1">
  <advance width="1228"/>
  <unicode hex="004B"/>
  <outline>
    <contour>
      <point x="253" y="515" type="line"/>
      <point x="396" y="323" type="line"/>
      <point x="1083" y="1041" type="line" smooth="yes"/>
      <point x="1117" y="1077"/>
      <point x="1115" y="1117"/>
      <point x="1036" y="1166" type="curve" smooth="yes"/>
      <point x="956" y="1216"/>
      <point x="919" y="1222"/>
      <point x="886" y="1186" type="curve" smooth="yes"/>
    </contour>
    <contour>
      <point x="248" y="1187" type="line" smooth="yes"/>
      <point x="203" y="1187"/>
      <point x="185" y="1169"/>
      <point x="185" y="1124" type="curve" smooth="yes"/>
      <point x="185" y="63" type="line" smooth="yes"/>
      <point x="185" y="18"/>
      <point x="203" y="0"/>
      <point x="248" y="0" type="curve"/>
      <point x="372" y="0" type="line" smooth="yes"/>
      <point x="417" y="0"/>
      <point x="435" y="18"/>
      <point x="435" y="63" type="curve" smooth="yes"/>
      <point x="435" y="1124" type="line" smooth="yes"/>
      <point x="435" y="1169"/>
      <point x="417" y="1187"/>
      <point x="372" y="1187" type="curve" smooth="yes"/>
    </contour>
    <contour>
      <point x="468" y="611" type="line"/>
      <point x="875" y="7" type="line" smooth="yes"/>
      <point x="902" y="-33"/>
      <point x="939" y="-31"/>
      <point x="1027" y="10" type="curve" smooth="yes"/>
      <point x="1114" y="50"/>
      <point x="1127" y="84"/>
      <point x="1100" y="124" type="curve" smooth="yes"/>
      <point x="719" y="679" type="line"/>
    </contour>
  </outline>
</glyph>
<glyph name="Q" format="1">
  <advance width="1228"/>
  <unicode hex="0051"/>
  <outline>
    <contour>
      <point x="526" y="411"/>
      <point x="518" y="383"/>
      <point x="544" y="346" type="curve" smooth="yes"/>
      <point x="672" y="163" type="line"/>
      <point x="714" y="67" type="line"/>
      <point x="860" y="-143" type="line" smooth="yes"/>
      <point x="886" y="-179"/>
      <point x="918" y="-179"/>
      <point x="996" y="-124" type="curve" smooth="yes"/>
      <point x="1074" y="-70"/>
      <point x="1087" y="-39"/>
      <point x="1061" y="-2" type="curve" smooth="yes"/>
      <point x="729" y="475" type="line" smooth="yes"/>
      <point x="703" y="512"/>
      <point x="674" y="514"/>
      <point x="600" y="462" type="curve" smooth="yes"/>
    </contour>
    <component base="O"/>
  </outline>
</glyph>
<glyph name="R" format="1">
  <advance width="1228"/>
  <unicode hex="0052"/>
  <outline>
    <contour>
      <point x="342" y="1187" type="line"/>
      <point x="342" y="952" type="line"/>
      <point x="609" y="952" type="line" smooth="yes"/>
      <point x="746" y="952"/>
      <point x="809" y="903"/>
      <point x="809" y="794" type="curve" smooth="yes"/>
      <point x="809" y="685"/>
      <point x="746" y="636"/>
      <point x="609" y="636" type="curve" smooth="yes"/>
      <point x="342" y="636" type="line"/>
      <point x="342" y="401" type="line"/>
      <point x="630" y="401" type="line" smooth="yes"/>
      <point x="910" y="401"/>
      <point x="1067" y="547"/>
      <point x="1067" y="794" type="curve" smooth="yes"/>
      <point x="1067" y="1041"/>
      <point x="910" y="1187"/>
      <point x="630" y="1187" type="curve" smooth="yes"/>
    </contour>
    <contour>
      <point x="243" y="1187" type="line" smooth="yes"/>
      <point x="199" y="1187"/>
      <point x="180" y="1169"/>
      <point x="180" y="1124" type="curve" smooth="yes"/>
      <point x="180" y="63" type="line" smooth="yes"/>
      <point x="180" y="18"/>
      <point x="198" y="0"/>
      <point x="243" y="0" type="curve" smooth="yes"/>
      <point x="367" y="0" type="line" smooth="yes"/>
      <point x="412" y="0"/>
      <point x="430" y="18"/>
      <point x="430" y="63" type="curve" smooth="yes"/>
      <point x="430" y="1187" type="line"/>
    </contour>
    <contour>
      <point x="534" y="499" type="line"/>
      <point x="826" y="18" type="line" smooth="yes"/>
      <point x="851" y="-23"/>
      <point x="889" y="-22"/>
      <point x="978" y="14" type="curve" smooth="yes"/>
      <point x="1067" y="51"/>
      <point x="1077" y="87"/>
      <point x="1052" y="128" type="curve" smooth="yes"/>
      <point x="783" y="559" type="line"/>
    </contour>
  </outline>
</glyph>
<glyph name="S" format="1">
  <advance width="1228"/>
  <unicode hex="0053"/>
  <outline>
    <contour>
      <point x="322" y="1209"/>
      <point x="149" y="1063"/>
      <point x="149" y="828" type="curve" smooth="yes"/>
      <point x="149" y="677"/>
      <point x="215" y="598"/>
      <point x="307" y="553" type="curve" smooth="yes"/>
      <point x="444" y="486"/>
      <point x="636" y="495"/>
      <point x="743" y="451" type="curve" smooth="yes"/>
      <point x="792" y="431"/>
      <point x="822" y="401"/>
      <point x="822" y="347" type="curve" smooth="yes"/>
      <point x="822" y="264"/>
      <point x="750" y="215"/>
      <point x="611" y="215" type="curve" smooth="yes"/>
      <point x="502" y="215"/>
      <point x="369" y="238"/>
      <point x="270" y="285" type="curve" smooth="yes"/>
      <point x="230" y="304"/>
      <point x="189" y="288"/>
      <point x="162" y="208" type="curve" smooth="yes"/>
      <point x="135" y="127"/>
      <point x="151" y="86"/>
      <point x="194" y="65" type="curve" smooth="yes"/>
      <point x="309" y="9"/>
      <point x="480" y="-22"/>
      <point x="621" y="-22" type="curve" smooth="yes"/>
      <point x="920" y="-22"/>
      <point x="1087" y="126"/>
      <point x="1087" y="362" type="curve" smooth="yes"/>
      <point x="1087" y="525"/>
      <point x="1020" y="613"/>
      <point x="929" y="663" type="curve" smooth="yes"/>
      <point x="787" y="740"/>
      <point x="586" y="726"/>
      <point x="481" y="763" type="curve" smooth="yes"/>
      <point x="438" y="778"/>
      <point x="412" y="802"/>
      <point x="412" y="843" type="curve" smooth="yes"/>
      <point x="412" y="922"/>
      <point x="476" y="972"/>
      <point x="594" y="972" type="curve" smooth="yes"/>
      <point x="703" y="972"/>
      <point x="832" y="948"/>
      <point x="935" y="910" type="curve" smooth="yes"/>
      <point x="976" y="895"/>
      <point x="1015" y="913"/>
      <point x="1037" y="995" type="curve" smooth="yes"/>
      <point x="1059" y="1078"/>
      <point x="1039" y="1117"/>
      <point x="994" y="1135" type="curve" smooth="yes"/>
      <point x="875" y="1182"/>
      <point x="735" y="1209"/>
      <point x="594" y="1209" type="curve" smooth="yes"/>
    </contour>
  </outline>
</glyph>
<glyph name="T" format="1">
  <advance width="1228"/>
  <unicode hex="0054"/>
  <outline>
    <contour>
      <point x="489" y="1067" type="line"/>
      <point x="489" y="63" type="line" smooth="yes"/>
      <point x="489" y="18"/>
      <point x="507" y="0"/>
      <point x="552" y="0" type="curve" smooth="yes"/>
      <point x="676" y="0" type="line" smooth="yes"/>
      <point x="721" y="0"/>
      <point x="739" y="18"/>
      <point x="739" y="63" type="curve" smooth="yes"/>
      <point x="739" y="1067" type="line"/>
    </contour>
    <contour>
      <point x="163" y="1187" type="line" smooth="yes"/>
      <point x="118" y="1187"/>
      <point x="100" y="1164"/>
      <point x="100" y="1069" type="curve" smooth="yes"/>
      <point x="100" y="974"/>
      <point x="118" y="952"/>
      <point x="163" y="952" type="curve" smooth="yes"/>
      <point x="1065" y="952" type="line"/>
      <point x="1110" y="952"/>
      <point x="1128" y="974"/>
      <point x="1128" y="1069" type="curve" smooth="yes"/>
      <point x="1128" y="1164"/>
      <point x="1110" y="1187"/>
      <point x="1065" y="1187" type="curve" smooth="yes"/>
    </contour>
  </outline>
</glyph>
<glyph name="U" format="1">
  <advance width="1228"/>
  <unicode hex="0055"/>
  <outline>
    <contour>
      <point x="901" y="1187" type="line" smooth="yes"/>
      <point x="856" y="1187"/>
      <point x="838" y="1169"/>
      <point x="838" y="1124" type="curve" smooth="yes"/>
      <point x="838" y="453" type="line" smooth="yes"/>
      <point x="838" y="288"/>
      <point x="743" y="215"/>
      <point x="614" y="215" type="curve" smooth="yes"/>
      <point x="485" y="215"/>
      <point x="390" y="288"/>
      <point x="390" y="453" type="curve" smooth="yes"/>
      <point x="390" y="1124" type="line" smooth="yes"/>
      <point x="390" y="1169"/>
      <point x="372" y="1187"/>
      <point x="327" y="1187" type="curve" smooth="yes"/>
      <point x="203" y="1187" type="line" smooth="yes"/>
      <point x="158" y="1187"/>
      <point x="140" y="1169"/>
      <point x="140" y="1124" type="curve" smooth="yes"/>
      <point x="140" y="433" type="line" smooth="yes"/>
      <point x="140" y="143"/>
      <point x="324" y="-22"/>
      <point x="614" y="-22" type="curve" smooth="yes"/>
      <point x="904" y="-22"/>
      <point x="1088" y="143"/>
      <point x="1088" y="433" type="curve" smooth="yes"/>
      <point x="1088" y="1124" type="line" smooth="yes"/>
      <point x="1088" y="1169"/>
      <point x="1070" y="1187"/>
      <point x="1025" y="1187" type="curve" smooth="yes"/>
    </contour>
  </outline>
</glyph>
<glyph name="V" format="1">
  <advance width="1228"/>
  <unicode hex="0056"/>
  <outline>
    <contour>
      <point x="958" y="1211"/>
      <point x="917" y="1204"/>
      <point x="900" y="1160" type="curve" smooth="yes"/>
      <point x="612" y="394" type="line"/>
      <point x="334" y="1160" type="line" smooth="yes"/>
      <point x="318" y="1204"/>
      <point x="275" y="1211"/>
      <point x="182" y="1189" type="curve" smooth="yes"/>
      <point x="88" y="1167"/>
      <point x="66" y="1135"/>
      <point x="83" y="1090" type="curve" smooth="yes"/>
      <point x="477" y="43" type="line" smooth="yes"/>
      <point x="494" y="-3"/>
      <point x="525" y="-22"/>
      <point x="608" y="-22" type="curve" smooth="yes"/>
      <point x="691" y="-22"/>
      <point x="723" y="-4"/>
      <point x="741" y="43" type="curve" smooth="yes"/>
      <point x="1148" y="1090" type="line" smooth="yes"/>
      <point x="1166" y="1135"/>
      <point x="1145" y="1167"/>
      <point x="1051" y="1189" type="curve" smooth="yes"/>
    </contour>
  </outline>
</glyph>
<glyph name="W" format="1">
  <advance width="1228"/>
  <unicode hex="0057"/>
  <outline>
    <contour>
      <point x="970" y="1197"/>
      <point x="936" y="1181"/>
      <point x="932" y="1138" type="curve" smooth="yes"/>
      <point x="864" y="466" type="line"/>
      <point x="713" y="831" type="line" smooth="yes"/>
      <point x="702" y="856"/>
      <point x="685" y="875"/>
      <point x="616" y="875" type="curve" smooth="yes"/>
      <point x="547" y="875"/>
      <point x="530" y="856"/>
      <point x="519" y="831" type="curve" smooth="yes"/>
      <point x="368" y="466" type="line"/>
      <point x="301" y="1138" type="line" smooth="yes"/>
      <point x="297" y="1181"/>
      <point x="257" y="1197"/>
      <point x="167" y="1197" type="curve" smooth="yes"/>
      <point x="78" y="1197"/>
      <point x="50" y="1173"/>
      <point x="55" y="1129" type="curve" smooth="yes"/>
      <point x="172" y="55" type="line" smooth="yes"/>
      <point x="177" y="6"/>
      <point x="200" y="-10"/>
      <point x="295" y="-10" type="curve" smooth="yes"/>
      <point x="390" y="-10"/>
      <point x="418" y="11"/>
      <point x="436" y="55" type="curve" smooth="yes"/>
      <point x="612" y="477" type="line"/>
      <point x="788" y="55" type="line" smooth="yes"/>
      <point x="806" y="11"/>
      <point x="834" y="-10"/>
      <point x="929" y="-10" type="curve" smooth="yes"/>
      <point x="1024" y="-10"/>
      <point x="1047" y="6"/>
      <point x="1052" y="55" type="curve" smooth="yes"/>
      <point x="1169" y="1129" type="line" smooth="yes"/>
      <point x="1174" y="1173"/>
      <point x="1149" y="1197"/>
      <point x="1060" y="1197" type="curve" smooth="yes"/>
    </contour>
  </outline>
</glyph>
<glyph name="X" format="1">
  <advance width="1228"/>
  <unicode hex="0058"/>
  <outline>
    <contour>
      <point x="930" y="1209"/>
      <point x="890" y="1209"/>
      <point x="864" y="1169" type="curve" smooth="yes"/>
      <point x="569" y="721" type="line"/>
      <point x="546" y="751" type="line"/>
      <point x="124" y="128" type="line" smooth="yes"/>
      <point x="97" y="88"/>
      <point x="111" y="51"/>
      <point x="200" y="14" type="curve" smooth="yes"/>
      <point x="289" y="-22"/>
      <point x="329" y="-22"/>
      <point x="355" y="18" type="curve" smooth="yes"/>
      <point x="647" y="461" type="line"/>
      <point x="669" y="441" type="line"/>
      <point x="1091" y="1059" type="line" smooth="yes"/>
      <point x="1118" y="1099"/>
      <point x="1108" y="1136"/>
      <point x="1019" y="1173" type="curve" smooth="yes"/>
    </contour>
    <contour>
      <point x="122" y="1136"/>
      <point x="110" y="1099"/>
      <point x="137" y="1059" type="curve" smooth="yes"/>
      <point x="559" y="436" type="line"/>
      <point x="570" y="466" type="line"/>
      <point x="869" y="18" type="line" smooth="yes"/>
      <point x="896" y="-22"/>
      <point x="937" y="-22"/>
      <point x="1026" y="14" type="curve" smooth="yes"/>
      <point x="1115" y="51"/>
      <point x="1131" y="88"/>
      <point x="1104" y="128" type="curve" smooth="yes"/>
      <point x="677" y="758" type="line"/>
      <point x="663" y="721" type="line"/>
      <point x="368" y="1169" type="line" smooth="yes"/>
      <point x="342" y="1209"/>
      <point x="300" y="1209"/>
      <point x="211" y="1173" type="curve" smooth="yes"/>
    </contour>
  </outline>
</glyph>
<glyph name="Z" format="1">
  <advance width="1228"/>
  <unicode hex="005A"/>
  <outline>
    <contour>
      <point x="722" y="1187" type="line"/>
      <point x="722" y="972" type="line"/>
      <point x="158" y="195" type="line" smooth="yes"/>
      <point x="144" y="176"/>
      <point x="138" y="147"/>
      <point x="138" y="102" type="curve" smooth="yes"/>
      <point x="138" y="17"/>
      <point x="156" y="0"/>
      <point x="201" y="0" type="curve" smooth="yes"/>
      <point x="484" y="0" type="line"/>
      <point x="483" y="215" type="line"/>
      <point x="1047" y="992" type="line" smooth="yes"/>
      <point x="1062" y="1012"/>
      <point x="1070" y="1041"/>
      <point x="1070" y="1084" type="curve" smooth="yes"/>
      <point x="1070" y="1169"/>
      <point x="1052" y="1187"/>
      <point x="1007" y="1187" type="curve" smooth="yes"/>
    </contour>
    <contour>
      <point x="363" y="235" type="line"/>
      <point x="363" y="0" type="line"/>
      <point x="1027" y="0" type="line" smooth="yes"/>
      <point x="1072" y="0"/>
      <point x="1090" y="22"/>
      <point x="1090" y="117" type="curve" smooth="yes"/>
      <point x="1090" y="212"/>
      <point x="1072" y="235"/>
      <point x="1027" y="235" type="curve" smooth="yes"/>
    </contour>
    <contour>
      <point x="221" y="1187" type="line" smooth="yes"/>
      <point x="176" y="1187"/>
      <point x="158" y="1164"/>
      <point x="158" y="1069" type="curve" smooth="yes"/>
      <point x="158" y="974"/>
      <point x="176" y="952"/>
      <point x="221" y="952" type="curve" smooth="yes"/>
      <point x="845" y="952" type="line"/>
      <point x="845" y="1187" type="line"/>
    </contour>
  </outline>
</glyph>
<glyph name="backslash" format="1">
  <advance width="1228"/>
  <unicode hex="005C"/>
  <outline>
    <contour>
      <point x="240" y="1399"/>
      <point x="142" y="1352"/>
      <point x="171" y="1281" type="curve" smooth="yes"/>
      <point x="833" y="-327" type="line" smooth="yes"/>
      <point x="843" y="-350"/>
      <point x="874" y="-360"/>
      <point x="909" y="-360" type="curve" smooth="yes"/>
      <point x="986" y="-360"/>
      <point x="1085" y="-312"/>
      <point x="1057" y="-243" type="curve" smooth="yes"/>
      <point x="395" y="1365" type="line" smooth="yes"/>
      <point x="385" y="1388"/>
      <point x="353" y="1399"/>
      <point x="317" y="1399" type="curve" smooth="yes"/>
    </contour>
  </outline>
</glyph>
<glyph name="bracketright" format="1">
  <advance width="1228"/>
  <unicode hex="005D"/>
  <outline>
    <contour>
      <point x="688" y="1372" type="line"/>
      <point x="688" y="-333" type="line"/>
      <point x="875" y="-333" type="line"/>
      <point x="920" y="-333"/>
      <point x="938" y="-315"/>
      <point x="938" y="-270" type="curve" smooth="yes"/>
      <point x="938" y="1309" type="line" smooth="yes"/>
      <point x="938" y="1354"/>
      <point x="920" y="1372"/>
      <point x="875" y="1372" type="curve"/>
    </contour>
    <contour>
      <point x="365" y="-108" type="line"/>
      <point x="320" y="-108"/>
      <point x="302" y="-131"/>
      <point x="302" y="-221" type="curve" smooth="yes"/>
      <point x="302" y="-311"/>
      <point x="320" y="-333"/>
      <point x="365" y="-333" type="curve" smooth="yes"/>
      <point x="779" y="-333" type="line"/>
      <point x="779" y="-108" type="line"/>
    </contour>
    <contour>
      <point x="365" y="1372" type="line"/>
      <point x="320" y="1372"/>
      <point x="302" y="1349"/>
      <point x="302" y="1259" type="curve" smooth="yes"/>
      <point x="302" y="1169"/>
      <point x="320" y="1147"/>
      <point x="365" y="1147" type="curve" smooth="yes"/>
      <point x="779" y="1147" type="line"/>
      <point x="779" y="1372" type="line"/>
    </contour>
  </outline>
</glyph>
<glyph name="grave" format="1">
  <advance width="1228"/>
  <unicode hex="0060"/>
  <outline>
    <contour>
      <point x="404" y="1391" type="line" smooth="yes"/>
      <point x="365" y="1413"/>
      <point x="324" y="1400"/>
      <point x="283" y="1297" type="curve" smooth="yes"/>
      <point x="247" y="1206"/>
      <point x="258" y="1173"/>
      <point x="291" y="1164" type="curve" smooth="yes"/>
      <point x="767" y="1030" type="line" smooth="yes"/>
      <point x="798" y="1021"/>
      <point x="821" y="1035"/>
      <point x="836" y="1082" type="curve" smooth="yes"/>
      <point x="850" y="1125"/>
      <point x="840" y="1150"/>
      <point x="812" y="1165" type="curve" smooth="yes"/>
    </contour>
  </outline>
</glyph>
<glyph name="b" format="1">
  <advance width="1228"/>
  <unicode hex="0062"/>
  <outline>
    <contour>
      <point x="230" y="1312" type="line" smooth="yes"/>
      <point x="185" y="1312"/>
      <point x="167" y="1294"/>
      <point x="167" y="1249" type="curve" smooth="yes"/>
      <point x="167" y="63" type="line" smooth="yes"/>
      <point x="167" y="18"/>
      <point x="185" y="0"/>
      <point x="230" y="0" type="curve" smooth="yes"/>
      <point x="324" y="0" type="line" smooth="yes"/>
      <point x="369" y="0"/>
      <point x="387" y="18"/>
      <point x="387" y="63" type="curve" smooth="yes"/>
      <point x="387" y="137" type="line"/>
      <point x="453" y="38"/>
      <point x="556" y="-22"/>
      <point x="680" y="-22" type="curve" smooth="yes"/>
      <point x="949" y="-22"/>
      <point x="1105" y="192"/>
      <point x="1105" y="462" type="curve" smooth="yes"/>
      <point x="1105" y="732"/>
      <point x="949" y="946"/>
      <point x="680" y="946" type="curve" smooth="yes"/>
      <point x="574" y="946"/>
      <point x="484" y="902"/>
      <point x="417" y="828" type="curve"/>
      <point x="417" y="1249" type="line"/>
      <point x="417" y="1294"/>
      <point x="399" y="1312"/>
      <point x="354" y="1312" type="curve" smooth="yes"/>
    </contour>
    <contour>
      <point x="765" y="714"/>
      <point x="843" y="616"/>
      <point x="843" y="462" type="curve" smooth="yes"/>
      <point x="843" y="308"/>
      <point x="765" y="210"/>
      <point x="640" y="210" type="curve" smooth="yes"/>
      <point x="515" y="210"/>
      <point x="410" y="298"/>
      <point x="410" y="462" type="curve" smooth="yes"/>
      <point x="410" y="626"/>
      <point x="515" y="714"/>
      <point x="640" y="714" type="curve" smooth="yes"/>
    </contour>
  </outline>
</glyph>
<glyph name="f" format="1">
  <advance width="1228"/>
  <unicode hex="0066"/>
  <outline>
    <contour>
      <point x="538" y="1317"/>
      <point x="413" y="1186"/>
      <point x="413" y="937" type="curve" smooth="yes"/>
      <point x="413" y="63" type="line" smooth="yes"/>
      <point x="413" y="18"/>
      <point x="431" y="0"/>
      <point x="476" y="0" type="curve" smooth="yes"/>
      <point x="600" y="0" type="line" smooth="yes"/>
      <point x="645" y="0"/>
      <point x="663" y="18"/>
      <point x="663" y="63" type="curve" smooth="yes"/>
      <point x="663" y="924" type="line" smooth="yes"/>
      <point x="663" y="1035"/>
      <point x="710" y="1080"/>
      <point x="792" y="1080" type="curve" smooth="yes"/>
      <point x="860" y="1080"/>
      <point x="929" y="1067"/>
      <point x="1014" y="1041" type="curve" smooth="yes"/>
      <point x="1057" y="1028"/>
      <point x="1091" y="1043"/>
      <point x="1113" y="1124" type="curve" smooth="yes"/>
      <point x="1135" y="1207"/>
      <point x="1120" y="1243"/>
      <point x="1074" y="1260" type="curve" smooth="yes"/>
      <point x="967" y="1300"/>
      <point x="864" y="1317"/>
      <point x="770" y="1317" type="curve" smooth="yes"/>
    </contour>
    <contour>
      <point x="230" y="864" type="line" smooth="yes"/>
      <point x="185" y="864"/>
      <point x="167" y="841"/>
      <point x="167" y="751" type="curve" smooth="yes"/>
      <point x="167" y="661"/>
      <point x="185" y="639"/>
      <point x="230" y="639" type="curve" smooth="yes"/>
      <point x="974" y="639" type="line" smooth="yes"/>
      <point x="1019" y="639"/>
      <point x="1037" y="661"/>
      <point x="1037" y="751" type="curve" smooth="yes"/>
      <point x="1037" y="841"/>
      <point x="1019" y="864"/>
      <point x="974" y="864" type="curve" smooth="yes"/>
    </contour>
  </outline>
</glyph>
<glyph name="g" format="1">
  <advance width="1228"/>
  <unicode hex="0067"/>
  <outline>
    <contour>
      <point x="286" y="946"/>
      <point x="123" y="747"/>
      <point x="123" y="477" type="curve" smooth="yes"/>
      <point x="123" y="213"/>
      <point x="286" y="18"/>
      <point x="548" y="18" type="curve" smooth="yes"/>
      <point x="653" y="18"/>
      <point x="744" y="56"/>
      <point x="811" y="123" type="curve"/>
      <point x="811" y="21" type="line" smooth="yes"/>
      <point x="811" y="-113"/>
      <point x="749" y="-183"/>
      <point x="587" y="-183" type="curve" smooth="yes"/>
      <point x="500" y="-183"/>
      <point x="391" y="-160"/>
      <point x="285" y="-127" type="curve" smooth="yes"/>
      <point x="242" y="-114"/>
      <point x="209" y="-131"/>
      <point x="184" y="-212" type="curve" smooth="yes"/>
      <point x="159" y="-294"/>
      <point x="171" y="-336"/>
      <point x="219" y="-351" type="curve" smooth="yes"/>
      <point x="344" y="-390"/>
      <point x="486" y="-410"/>
      <point x="597" y="-410" type="curve" smooth="yes"/>
      <point x="911" y="-410"/>
      <point x="1061" y="-255"/>
      <point x="1061" y="1" type="curve" smooth="yes"/>
      <point x="1061" y="861" type="line" smooth="yes"/>
      <point x="1061" y="906"/>
      <point x="1043" y="924"/>
      <point x="998" y="924" type="curve" smooth="yes"/>
      <point x="914" y="924" type="line" smooth="yes"/>
      <point x="869" y="924"/>
      <point x="851" y="906"/>
      <point x="851" y="861" type="curve" smooth="yes"/>
      <point x="851" y="791" type="line"/>
      <point x="782" y="890"/>
      <point x="676" y="946"/>
      <point x="548" y="946" type="curve" smooth="yes"/>
    </contour>
    <contour>
      <point x="713" y="714"/>
      <point x="818" y="637"/>
      <point x="818" y="477" type="curve" smooth="yes"/>
      <point x="818" y="317"/>
      <point x="713" y="240"/>
      <point x="588" y="240" type="curve" smooth="yes"/>
      <point x="466" y="240"/>
      <point x="385" y="323"/>
      <point x="385" y="477" type="curve" smooth="yes"/>
      <point x="385" y="631"/>
      <point x="466" y="714"/>
      <point x="588" y="714" type="curve" smooth="yes"/>
    </contour>
  </outline>
</glyph>
<glyph name="i" format="1">
  <advance width="1228"/>
  <unicode hex="0069"/>
  <outline>
    <contour>
      <point x="310" y="924" type="line" smooth="yes"/>
      <point x="265" y="924"/>
      <point x="247" y="901"/>
      <point x="247" y="811" type="curve" smooth="yes"/>
      <point x="247" y="721"/>
      <point x="265" y="699"/>
      <point x="310" y="699" type="curve" smooth="yes"/>
      <point x="503" y="699" type="line"/>
      <point x="503" y="225" type="line"/>
      <point x="230" y="225" type="line" smooth="yes"/>
      <point x="185" y="225"/>
      <point x="167" y="202"/>
      <point x="167" y="112" type="curve" smooth="yes"/>
      <point x="167" y="22"/>
      <point x="185" y="0"/>
      <point x="230" y="0" type="curve" smooth="yes"/>
      <point x="1034" y="0" type="line" smooth="yes"/>
      <point x="1079" y="0"/>
      <point x="1097" y="22"/>
      <point x="1097" y="112" type="curve" smooth="yes"/>
      <point x="1097" y="202"/>
      <point x="1079" y="225"/>
      <point x="1034" y="225" type="curve" smooth="yes"/>
      <point x="753" y="225" type="line"/>
      <point x="753" y="861" type="line" smooth="yes"/>
      <point x="753" y="906"/>
      <point x="735" y="924"/>
      <point x="690" y="924" type="curve" smooth="yes"/>
    </contour>
    <contour>
      <point x="530" y="1383"/>
      <point x="503" y="1365"/>
      <point x="503" y="1320" type="curve" smooth="yes"/>
      <point x="503" y="1156" type="line" smooth="yes"/>
      <point x="503" y="1111"/>
      <point x="535" y="1093"/>
      <point x="630" y="1093" type="curve" smooth="yes"/>
      <point x="725" y="1093"/>
      <point x="753" y="1111"/>
      <point x="753" y="1156" type="curve" smooth="yes"/>
      <point x="753" y="1320" type="line" smooth="yes"/>
      <point x="753" y="1365"/>
      <point x="720" y="1383"/>
      <point x="625" y="1383" type="curve" smooth="yes"/>
    </contour>
  </outline>
</glyph>
<glyph name="j" format="1">
  <advance width="1228"/>
  <unicode hex="006A"/>
  <outline>
    <contour>
      <point x="600" y="924" type="line"/>
      <point x="673" y="719" type="line"/>
      <point x="673" y="-22" type="line" smooth="yes"/>
      <point x="673" y="-133"/>
      <point x="626" y="-178"/>
      <point x="544" y="-178" type="curve" smooth="yes"/>
      <point x="474" y="-178"/>
      <point x="384" y="-148"/>
      <point x="293" y="-108" type="curve" smooth="yes"/>
      <point x="252" y="-90"/>
      <point x="213" y="-104"/>
      <point x="183" y="-184" type="curve" smooth="yes"/>
      <point x="153" y="-264"/>
      <point x="165" y="-301"/>
      <point x="209" y="-323" type="curve" smooth="yes"/>
      <point x="326" y="-382"/>
      <point x="457" y="-415"/>
      <point x="566" y="-415" type="curve" smooth="yes"/>
      <point x="798" y="-415"/>
      <point x="923" y="-284"/>
      <point x="923" y="-35" type="curve" smooth="yes"/>
      <point x="923" y="861" type="line" smooth="yes"/>
      <point x="923" y="906"/>
      <point x="905" y="924"/>
      <point x="860" y="924" type="curve" smooth="yes"/>
    </contour>
    <contour>
      <point x="290" y="924" type="line" smooth="yes"/>
      <point x="245" y="924"/>
      <point x="227" y="901"/>
      <point x="227" y="811" type="curve" smooth="yes"/>
      <point x="227" y="721"/>
      <point x="245" y="699"/>
      <point x="290" y="699" type="curve" smooth="yes"/>
      <point x="704" y="699" type="line"/>
      <point x="704" y="924" type="line"/>
    </contour>
    <contour>
      <point x="700" y="1383"/>
      <point x="673" y="1365"/>
      <point x="673" y="1320" type="curve" smooth="yes"/>
      <point x="673" y="1156" type="line" smooth="yes"/>
      <point x="673" y="1111"/>
      <point x="705" y="1093"/>
      <point x="800" y="1093" type="curve" smooth="yes"/>
      <point x="895" y="1093"/>
      <point x="923" y="1111"/>
      <point x="923" y="1156" type="curve" smooth="yes"/>
      <point x="923" y="1320" type="line" smooth="yes"/>
      <point x="923" y="1365"/>
      <point x="890" y="1383"/>
      <point x="795" y="1383" type="curve" smooth="yes"/>
    </contour>
  </outline>
</glyph>
<glyph name="l" format="1">
  <advance width="1228"/>
  <unicode hex="006C"/>
  <outline>
    <contour>
      <point x="493" y="1312" type="line"/>
      <point x="493" y="149" type="line"/>
      <point x="743" y="149" type="line"/>
      <point x="743" y="1249" type="line" smooth="yes"/>
      <point x="743" y="1294"/>
      <point x="725" y="1312"/>
      <point x="680" y="1312" type="curve" smooth="yes"/>
    </contour>
    <contour>
      <point x="220" y="225" type="line"/>
      <point x="175" y="225"/>
      <point x="157" y="202"/>
      <point x="157" y="112" type="curve" smooth="yes"/>
      <point x="157" y="22"/>
      <point x="175" y="0"/>
      <point x="220" y="0" type="curve" smooth="yes"/>
      <point x="1024" y="0" type="line" smooth="yes"/>
      <point x="1069" y="0"/>
      <point x="1087" y="22"/>
      <point x="1087" y="112" type="curve" smooth="yes"/>
      <point x="1087" y="202"/>
      <point x="1069" y="225"/>
      <point x="1024" y="225" type="curve"/>
    </contour>
    <contour>
      <point x="260" y="1312" type="line" smooth="yes"/>
      <point x="215" y="1312"/>
      <point x="197" y="1289"/>
      <point x="197" y="1199" type="curve" smooth="yes"/>
      <point x="197" y="1109"/>
      <point x="215" y="1087"/>
      <point x="260" y="1087" type="curve"/>
      <point x="584" y="1087" type="line"/>
      <point x="584" y="1312" type="line"/>
    </contour>
  </outline>
</glyph>
<glyph name="p" format="1">
  <advance width="1228"/>
  <unicode hex="0070"/>
  <outline>
    <contour>
      <point x="552" y="946"/>
      <point x="445" y="882"/>
      <point x="377" y="777" type="curve"/>
      <point x="377" y="861" type="line" smooth="yes"/>
      <point x="377" y="906"/>
      <point x="359" y="924"/>
      <point x="314" y="924" type="curve" smooth="yes"/>
      <point x="230" y="924" type="line" smooth="yes"/>
      <point x="185" y="924"/>
      <point x="167" y="906"/>
      <point x="167" y="861" type="curve" smooth="yes"/>
      <point x="167" y="-330" type="line" smooth="yes"/>
      <point x="167" y="-375"/>
      <point x="185" y="-393"/>
      <point x="230" y="-393" type="curve" smooth="yes"/>
      <point x="354" y="-393" type="line" smooth="yes"/>
      <point x="399" y="-393"/>
      <point x="417" y="-375"/>
      <point x="417" y="-330" type="curve" smooth="yes"/>
      <point x="417" y="96" type="line"/>
      <point x="484" y="22"/>
      <point x="574" y="-22"/>
      <point x="680" y="-22" type="curve" smooth="yes"/>
      <point x="949" y="-22"/>
      <point x="1105" y="192"/>
      <point x="1105" y="462" type="curve" smooth="yes"/>
      <point x="1105" y="732"/>
      <point x="949" y="946"/>
      <point x="680" y="946" type="curve" smooth="yes"/>
    </contour>
    <contour>
      <point x="765" y="714"/>
      <point x="843" y="616"/>
      <point x="843" y="462" type="curve" smooth="yes"/>
      <point x="843" y="308"/>
      <point x="765" y="210"/>
      <point x="640" y="210" type="curve" smooth="yes"/>
      <point x="515" y="210"/>
      <point x="410" y="298"/>
      <point x="410" y="462" type="curve" smooth="yes"/>
      <point x="410" y="626"/>
      <point x="515" y="714"/>
      <point x="640" y="714" type="curve" smooth="yes"/>
    </contour>
  </outline>
</glyph>
<glyph name="q" format="1">
  <advance width="1228"/>
  <unicode hex="0071"/>
  <outline>
    <contour>
      <point x="279" y="946"/>
      <point x="123" y="732"/>
      <point x="123" y="462" type="curve" smooth="yes"/>
      <point x="123" y="192"/>
      <point x="279" y="-22"/>
      <point x="548" y="-22" type="curve" smooth="yes"/>
      <point x="654" y="-22"/>
      <point x="744" y="22"/>
      <point x="811" y="96" type="curve"/>
      <point x="811" y="-330" type="line"/>
      <point x="811" y="-375"/>
      <point x="829" y="-393"/>
      <point x="874" y="-393" type="curve" smooth="yes"/>
      <point x="998" y="-393" type="line" smooth="yes"/>
      <point x="1043" y="-393"/>
      <point x="1061" y="-375"/>
      <point x="1061" y="-330" type="curve" smooth="yes"/>
      <point x="1061" y="861" type="line" smooth="yes"/>
      <point x="1061" y="906"/>
      <point x="1043" y="924"/>
      <point x="998" y="924" type="curve" smooth="yes"/>
      <point x="914" y="924" type="line" smooth="yes"/>
      <point x="869" y="924"/>
      <point x="851" y="906"/>
      <point x="851" y="861" type="curve" smooth="yes"/>
      <point x="851" y="777" type="line"/>
      <point x="783" y="882"/>
      <point x="676" y="946"/>
      <point x="548" y="946" type="curve" smooth="yes"/>
    </contour>
    <contour>
      <point x="713" y="714"/>
      <point x="818" y="626"/>
      <point x="818" y="462" type="curve" smooth="yes"/>
      <point x="818" y="298"/>
      <point x="713" y="210"/>
      <point x="588" y="210" type="curve" smooth="yes"/>
      <point x="463" y="210"/>
      <point x="385" y="308"/>
      <point x="385" y="462" type="curve" smooth="yes"/>
      <point x="385" y="616"/>
      <point x="463" y="714"/>
      <point x="588" y="714" type="curve" smooth="yes"/>
    </contour>
  </outline>
</glyph>
<glyph name="v" format="1">
  <advance width="1228"/>
  <unicode hex="0076"/>
  <outline>
    <contour>
      <point x="924" y="948"/>
      <point x="885" y="941"/>
      <point x="867" y="897" type="curve" smooth="yes"/>
      <point x="617" y="298" type="line"/>
      <point x="366" y="897" type="line" smooth="yes"/>
      <point x="347" y="941"/>
      <point x="306" y="948"/>
      <point x="213" y="926" type="curve" smooth="yes"/>
      <point x="119" y="904"/>
      <point x="94" y="872"/>
      <point x="114" y="827" type="curve" smooth="yes"/>
      <point x="460" y="43" type="line" smooth="yes"/>
      <point x="479" y="-1"/>
      <point x="514" y="-22"/>
      <point x="611" y="-22" type="curve" smooth="yes"/>
      <point x="707" y="-22"/>
      <point x="744" y="-2"/>
      <point x="764" y="43" type="curve" smooth="yes"/>
      <point x="1114" y="827" type="line" smooth="yes"/>
      <point x="1134" y="872"/>
      <point x="1111" y="904"/>
      <point x="1017" y="926" type="curve" smooth="yes"/>
    </contour>
  </outline>
</glyph>
<glyph name="x" format="1">
  <advance width="1228"/>
  <unicode hex="0078"/>
  <outline>
    <contour>
      <point x="920" y="949"/>
      <point x="878" y="948"/>
      <point x="845" y="910" type="curve" smooth="yes"/>
      <point x="545" y="558" type="line"/>
      <point x="531" y="570" type="line"/>
      <point x="165" y="162" type="line" smooth="yes"/>
      <point x="124" y="116"/>
      <point x="137" y="75"/>
      <point x="219" y="24" type="curve" smooth="yes"/>
      <point x="298" y="-25"/>
      <point x="340" y="-24"/>
      <point x="373" y="14" type="curve" smooth="yes"/>
      <point x="673" y="366" type="line"/>
      <point x="687" y="354" type="line"/>
      <point x="1053" y="762" type="line" smooth="yes"/>
      <point x="1094" y="808"/>
      <point x="1081" y="849"/>
      <point x="999" y="900" type="curve" smooth="yes"/>
    </contour>
    <contour>
      <point x="147" y="849"/>
      <point x="134" y="808"/>
      <point x="175" y="762" type="curve" smooth="yes"/>
      <point x="541" y="354" type="line"/>
      <point x="555" y="366" type="line"/>
      <point x="855" y="14" type="line" smooth="yes"/>
      <point x="888" y="-24"/>
      <point x="930" y="-25"/>
      <point x="1009" y="24" type="curve" smooth="yes"/>
      <point x="1091" y="75"/>
      <point x="1104" y="116"/>
      <point x="1063" y="162" type="curve" smooth="yes"/>
      <point x="697" y="570" type="line"/>
      <point x="683" y="558" type="line"/>
      <point x="383" y="910" type="line" smooth="yes"/>
      <point x="350" y="948"/>
      <point x="308" y="949"/>
      <point x="229" y="900" type="curve" smooth="yes"/>
    </contour>
  </outline>
</glyph>
<glyph name="y" format="1">
  <advance width="1228"/>
  <unicode hex="0079"/>
  <outline>
    <contour>
      <point x="924" y="948"/>
      <point x="885" y="941"/>
      <point x="867" y="897" type="curve" smooth="yes"/>
      <point x="617" y="298" type="line"/>
      <point x="366" y="897" type="line" smooth="yes"/>
      <point x="347" y="941"/>
      <point x="306" y="948"/>
      <point x="213" y="926" type="curve" smooth="yes"/>
      <point x="119" y="904"/>
      <point x="94" y="872"/>
      <point x="114" y="827" type="curve" smooth="yes"/>
      <point x="513" y="-76" type="line"/>
      <point x="519" y="88" type="line"/>
      <point x="328" y="-286" type="line" smooth="yes"/>
      <point x="306" y="-329"/>
      <point x="328" y="-362"/>
      <point x="422" y="-389" type="curve" smooth="yes"/>
      <point x="515" y="-416"/>
      <point x="557" y="-411"/>
      <point x="577" y="-367" type="curve" smooth="yes"/>
      <point x="1114" y="827" type="line" smooth="yes"/>
      <point x="1134" y="872"/>
      <point x="1111" y="904"/>
      <point x="1017" y="926" type="curve" smooth="yes"/>
    </contour>
  </outline>
</glyph>
<glyph name="bar" format="1">
  <advance width="1228"/>
  <unicode hex="007C"/>
  <outline>
    <contour>
      <point x="536" y="1394"/>
      <point x="489" y="1376"/>
      <point x="489" y="1331" type="curve" smooth="yes"/>
      <point x="489" y="-292" type="line" smooth="yes"/>
      <point x="489" y="-337"/>
      <point x="522" y="-355"/>
      <point x="607" y="-355" type="curve" smooth="yes"/>
      <point x="692" y="-355"/>
      <point x="739" y="-337"/>
      <point x="739" y="-292" type="curve" smooth="yes"/>
      <point x="739" y="1331" type="line" smooth="yes"/>
      <point x="739" y="1376"/>
      <point x="706" y="1394"/>
      <point x="621" y="1394" type="curve" smooth="yes"/>
    </contour>
  </outline>
</glyph>
<glyph name="braceright" format="1">
  <advance width="1228"/>
  <unicode hex="007D"/>
  <outline>
    <contour>
      <point x="248" y="1372"/>
      <point x="230" y="1352"/>
      <point x="230" y="1267" type="curve" smooth="yes"/>
      <point x="230" y="1174"/>
      <point x="248" y="1159"/>
      <point x="293" y="1159" type="curve" smooth="yes"/>
      <point x="490" y="1159"/>
      <point x="542" y="1097"/>
      <point x="533" y="947" type="curve" smooth="yes"/>
      <point x="527" y="850" type="line" smooth="yes"/>
      <point x="518" y="704"/>
      <point x="566" y="598"/>
      <point x="728" y="547" type="curve"/>
      <point x="728" y="537" type="line"/>
      <point x="566" y="486"/>
      <point x="511" y="379"/>
      <point x="523" y="233" type="curve" smooth="yes"/>
      <point x="534" y="102" type="line" smooth="yes"/>
      <point x="547" y="-54"/>
      <point x="490" y="-120"/>
      <point x="293" y="-120" type="curve" smooth="yes"/>
      <point x="248" y="-120"/>
      <point x="230" y="-134"/>
      <point x="230" y="-227" type="curve" smooth="yes"/>
      <point x="230" y="-312"/>
      <point x="248" y="-333"/>
      <point x="293" y="-333" type="curve" smooth="yes"/>
      <point x="653" y="-333"/>
      <point x="809" y="-201"/>
      <point x="783" y="90" type="curve" smooth="yes"/>
      <point x="770" y="233" type="line" smooth="yes"/>
      <point x="758" y="361"/>
      <point x="838" y="435"/>
      <point x="1000" y="435" type="curve" smooth="yes"/>
      <point x="1045" y="435"/>
      <point x="1063" y="453"/>
      <point x="1063" y="542" type="curve" smooth="yes"/>
      <point x="1063" y="631"/>
      <point x="1045" y="648"/>
      <point x="1000" y="648" type="curve" smooth="yes"/>
      <point x="838" y="648"/>
      <point x="762" y="723"/>
      <point x="774" y="850" type="curve" smooth="yes"/>
      <point x="784" y="959" type="line" smooth="yes"/>
      <point x="810" y="1241"/>
      <point x="653" y="1372"/>
      <point x="293" y="1372" type="curve" smooth="yes"/>
    </contour>
  </outline>
</glyph>
<glyph name="asciitilde" format="1">
  <advance width="1228"/>
  <unicode hex="007E"/>
  <outline>
    <contour>
      <point x="874" y="416"/>
      <point x="963" y="444"/>
      <point x="1057" y="523" type="curve" smooth="yes"/>
      <point x="1090" y="550"/>
      <point x="1093" y="598"/>
      <point x="1066" y="649" type="curve" smooth="yes"/>
      <point x="1039" y="699"/>
      <point x="1000" y="721"/>
      <point x="964" y="700" type="curve" smooth="yes"/>
      <point x="911" y="673"/>
      <point x="855" y="659"/>
      <point x="807" y="659" type="curve" smooth="yes"/>
      <point x="681" y="659"/>
      <point x="569" y="745"/>
      <point x="429" y="745" type="curve" smooth="yes"/>
      <point x="354" y="745"/>
      <point x="265" y="717"/>
      <point x="171" y="638" type="curve" smooth="yes"/>
      <point x="138" y="611"/>
      <point x="135" y="563"/>
      <point x="162" y="512" type="curve" smooth="yes"/>
      <point x="188" y="462"/>
      <point x="228" y="439"/>
      <point x="264" y="461" type="curve" smooth="yes"/>
      <point x="317" y="488"/>
      <point x="373" y="502"/>
      <point x="422" y="502" type="curve" smooth="yes"/>
      <point x="545" y="502"/>
      <point x="658" y="416"/>
      <point x="799" y="416" type="curve" smooth="yes"/>
    </contour>
  </outline>
</glyph>
<glyph name="logicalnot" format="1">
  <advance width="1228"/>
  <unicode hex="00AC"/>
  <outline>
    <contour>
      <point x="183" y="845" type="line" smooth="yes"/>
      <point x="138" y="845"/>
      <point x="120" y="827"/>
      <point x="120" y="732" type="curve" smooth="yes"/>
      <point x="120" y="637"/>
      <point x="138" y="620"/>
      <point x="183" y="620" type="curve" smooth="yes"/>
      <point x="848" y="620" type="line"/>
      <point x="848" y="348" type="line" smooth="yes"/>
      <point x="848" y="303"/>
      <point x="871" y="285"/>
      <point x="966" y="285" type="curve" smooth="yes"/>
      <point x="1061" y="285"/>
      <point x="1098" y="303"/>
      <point x="1098" y="348" type="curve" smooth="yes"/>
      <point x="1098" y="780" type="line" smooth="yes"/>
      <point x="1098" y="826"/>
      <point x="1079" y="845"/>
      <point x="1033" y="845" type="curve" smooth="yes"/>
    </contour>
  </outline>
</glyph>
<glyph name="threesuperior" format="1">
  <advance width="1228"/>
  <unicode hex="00B3"/>
  <outline>
    <contour>
      <point x="519" y="1334"/>
      <point x="417" y="1315"/>
      <point x="327" y="1278" type="curve" smooth="yes"/>
      <point x="293" y="1264"/>
      <point x="277" y="1234"/>
      <point x="295" y="1172" type="curve" smooth="yes"/>
      <point x="314" y="1108"/>
      <point x="344" y="1095"/>
      <point x="376" y="1108" type="curve" smooth="yes"/>
      <point x="457" y="1142"/>
      <point x="539" y="1161"/>
      <point x="607" y="1161" type="curve" smooth="yes"/>
      <point x="695" y="1161"/>
      <point x="740" y="1128"/>
      <point x="740" y="1074" type="curve" smooth="yes"/>
      <point x="740" y="1018"/>
      <point x="699" y="988"/>
      <point x="616" y="988" type="curve" smooth="yes"/>
      <point x="512" y="988" type="line" smooth="yes"/>
      <point x="481" y="988"/>
      <point x="464" y="966"/>
      <point x="464" y="902" type="curve" smooth="yes"/>
      <point x="464" y="838"/>
      <point x="481" y="816"/>
      <point x="512" y="816" type="curve" smooth="yes"/>
      <point x="635" y="816" type="line" smooth="yes"/>
      <point x="705" y="816"/>
      <point x="742" y="784"/>
      <point x="742" y="724" type="curve" smooth="yes"/>
      <point x="742" y="671"/>
      <point x="700" y="638"/>
      <point x="594" y="638" type="curve" smooth="yes"/>
      <point x="518" y="638"/>
      <point x="430" y="662"/>
      <point x="362" y="690" type="curve" smooth="yes"/>
      <point x="337" y="700"/>
      <point x="310" y="677"/>
      <point x="290" y="623" type="curve" smooth="yes"/>
      <point x="270" y="568"/>
      <point x="280" y="533"/>
      <point x="314" y="519" type="curve" smooth="yes"/>
      <point x="389" y="487"/>
      <point x="504" y="465"/>
      <point x="603" y="465" type="curve" smooth="yes"/>
      <point x="823" y="465"/>
      <point x="954" y="549"/>
      <point x="954" y="718" type="curve" smooth="yes"/>
      <point x="954" y="811"/>
      <point x="904" y="876"/>
      <point x="820" y="907" type="curve"/>
      <point x="895" y="943"/>
      <point x="942" y="998"/>
      <point x="942" y="1084" type="curve" smooth="yes"/>
      <point x="942" y="1240"/>
      <point x="829" y="1334"/>
      <point x="622" y="1334" type="curve" smooth="yes"/>
    </contour>
  </outline>
</glyph>
<glyph name="acute" format="1">
  <advance width="1228"/>
  <unicode hex="00B4"/>
  <outline>
    <contour>
      <point x="416" y="1165" type="line" smooth="yes"/>
      <point x="388" y="1150"/>
      <point x="378" y="1125"/>
      <point x="392" y="1082" type="curve" smooth="yes"/>
      <point x="407" y="1035"/>
      <point x="430" y="1021"/>
      <point x="461" y="1030" type="curve" smooth="yes"/>
      <point x="937" y="1164" type="line" smooth="yes"/>
      <point x="970" y="1173"/>
      <point x="981" y="1206"/>
      <point x="945" y="1297" type="curve" smooth="yes"/>
      <point x="904" y="1400"/>
      <point x="863" y="1413"/>
      <point x="824" y="1391" type="curve" smooth="yes"/>
    </contour>
  </outline>
</glyph>
<glyph name="threequarters" format="1">
  <advance width="1228"/>
  <unicode hex="00BE"/>
  <outline>
    <contour>
      <point x="189" y="1394"/>
      <point x="104" y="1378"/>
      <point x="29" y="1347" type="curve" smooth="yes"/>
      <point x="1" y="1335"/>
      <point x="-13" y="1310"/>
      <point x="2" y="1258" type="curve" smooth="yes"/>
      <point x="18" y="1205"/>
      <point x="43" y="1194"/>
      <point x="70" y="1205" type="curve" smooth="yes"/>
      <point x="138" y="1233"/>
      <point x="206" y="1249"/>
      <point x="263" y="1249" type="curve" smooth="yes"/>
      <point x="336" y="1249"/>
      <point x="374" y="1222"/>
      <point x="374" y="1177" type="curve" smooth="yes"/>
      <point x="374" y="1130"/>
      <point x="340" y="1105"/>
      <point x="270" y="1105" type="curve" smooth="yes"/>
      <point x="184" y="1105" type="line" smooth="yes"/>
      <point x="158" y="1105"/>
      <point x="143" y="1087"/>
      <point x="143" y="1033" type="curve" smooth="yes"/>
      <point x="143" y="980"/>
      <point x="158" y="962"/>
      <point x="184" y="962" type="curve" smooth="yes"/>
      <point x="286" y="962" type="line" smooth="yes"/>
      <point x="345" y="962"/>
      <point x="376" y="935"/>
      <point x="376" y="885" type="curve" smooth="yes"/>
      <point x="376" y="841"/>
      <point x="340" y="813"/>
      <point x="252" y="813" type="curve" smooth="yes"/>
      <point x="189" y="813"/>
      <point x="115" y="833"/>
      <point x="58" y="856" type="curve" smooth="yes"/>
      <point x="37" y="865"/>
      <point x="15" y="846"/>
      <point x="-2" y="801" type="curve" smooth="yes"/>
      <point x="-19" y="755"/>
      <point x="-10" y="726"/>
      <point x="18" y="714" type="curve" smooth="yes"/>
      <point x="81" y="687"/>
      <point x="177" y="669"/>
      <point x="260" y="669" type="curve" smooth="yes"/>
      <point x="443" y="669"/>
      <point x="553" y="739"/>
      <point x="553" y="880" type="curve" smooth="yes"/>
      <point x="553" y="957"/>
      <point x="511" y="1012"/>
      <point x="441" y="1037" type="curve"/>
      <point x="503" y="1067"/>
      <point x="543" y="1113"/>
      <point x="543" y="1185" type="curve" smooth="yes"/>
      <point x="543" y="1315"/>
      <point x="448" y="1394"/>
      <point x="275" y="1394" type="curve" smooth="yes"/>
    </contour>
    <contour>
      <point x="995" y="503"/>
      <point x="969" y="490"/>
      <point x="950" y="466" type="curve" smooth="yes"/>
      <point x="636" y="83" type="line" smooth="yes"/>
      <point x="626" y="69"/>
      <point x="622" y="58"/>
      <point x="622" y="38" type="curve" smooth="yes"/>
      <point x="622" y="-9"/>
      <point x="650" y="-63"/>
      <point x="676" y="-63" type="curve" smooth="yes"/>
      <point x="1211" y="-63" type="line" smooth="yes"/>
      <point x="1242" y="-63"/>
      <point x="1255" y="-42"/>
      <point x="1255" y="8" type="curve" smooth="yes"/>
      <point x="1255" y="57"/>
      <point x="1242" y="79"/>
      <point x="1211" y="79" type="curve" smooth="yes"/>
      <point x="817" y="79" type="line"/>
      <point x="975" y="281" type="line"/>
      <point x="970" y="79" type="line"/>
      <point x="970" y="-184" type="line" smooth="yes"/>
      <point x="970" y="-210"/>
      <point x="995" y="-224"/>
      <point x="1061" y="-224" type="curve" smooth="yes"/>
      <point x="1121" y="-224"/>
      <point x="1135" y="-210"/>
      <point x="1135" y="-184" type="curve" smooth="yes"/>
      <point x="1135" y="455" type="line" smooth="yes"/>
      <point x="1135" y="484"/>
      <point x="1105" y="503"/>
      <point x="1044" y="503" type="curve" smooth="yes"/>
    </contour>
    <contour>
      <point x="105" y="329" type="line" smooth="yes"/>
      <point x="77" y="313"/>
      <point x="79" y="286"/>
      <point x="109" y="240" type="curve" smooth="yes"/>
      <point x="139" y="194"/>
      <point x="162" y="188"/>
      <point x="185" y="200" type="curve" smooth="yes"/>
      <point x="1122" y="721" type="line" smooth="yes"/>
      <point x="1150" y="737"/>
      <point x="1148" y="764"/>
      <point x="1118" y="810" type="curve" smooth="yes"/>
      <point x="1088" y="856"/>
      <point x="1065" y="862"/>
      <point x="1042" y="850" type="curve" smooth="yes"/>
    </contour>
  </outline>
</glyph>
<glyph name="Thorn" format="1">
  <advance width="1228"/>
  <unicode hex="00DE"/>
  <outline>
    <contour>
      <point x="362" y="977" type="line"/>
      <point x="362" y="742" type="line"/>
      <point x="609" y="742" type="line" smooth="yes"/>
      <point x="756" y="742"/>
      <point x="829" y="694"/>
      <point x="829" y="595" type="curve" smooth="yes"/>
      <point x="829" y="496"/>
      <point x="756" y="447"/>
      <point x="609" y="447" type="curve" smooth="yes"/>
      <point x="362" y="447" type="line"/>
      <point x="362" y="212" type="line"/>
      <point x="640" y="212" type="line" smooth="yes"/>
      <point x="940" y="212"/>
      <point x="1087" y="358"/>
      <point x="1087" y="595" type="curve" smooth="yes"/>
      <point x="1087" y="832"/>
      <point x="940" y="977"/>
      <point x="640" y="977" type="curve" smooth="yes"/>
    </contour>
    <contour>
      <point x="273" y="1187" type="line" smooth="yes"/>
      <point x="228" y="1187"/>
      <point x="210" y="1169"/>
      <point x="210" y="1124" type="curve" smooth="yes"/>
      <point x="210" y="63" type="line" smooth="yes"/>
      <point x="210" y="18"/>
      <point x="228" y="0"/>
      <point x="273" y="0" type="curve" smooth="yes"/>
      <point x="397" y="0" type="line" smooth="yes"/>
      <point x="442" y="0"/>
      <point x="460" y="18"/>
      <point x="460" y="63" type="curve" smooth="yes"/>
      <point x="460" y="1124" type="line" smooth="yes"/>
      <point x="460" y="1169"/>
      <point x="442" y="1187"/>
      <point x="397" y="1187" type="curve" smooth="yes"/>
    </contour>
  </outline>
</glyph>
<glyph name="Aogonek" format="1">
  <advance width="1228"/>
  <unicode hex="0104"/>
  <outline>
    <contour>
      <point x="531" y="1209"/>
      <point x="494" y="1191"/>
      <point x="476" y="1144" type="curve" smooth="yes"/>
      <point x="77" y="97" type="line"/>
      <point x="60" y="52"/>
      <point x="78" y="20"/>
      <point x="172" y="-2" type="curve" smooth="yes"/>
      <point x="265" y="-24"/>
      <point x="304" y="-17"/>
      <point x="321" y="27" type="curve" smooth="yes"/>
      <point x="442" y="354" type="line"/>
      <point x="455" y="409" type="line"/>
      <point x="613" y="865" type="line"/>
      <point x="617" y="865" type="line"/>
      <point x="770" y="409" type="line"/>
      <point x="782" y="354" type="line"/>
      <point x="902" y="19" type="line"/>
      <point x="783" y="-57"/>
      <point x="691" y="-145"/>
      <point x="691" y="-269" type="curve" smooth="yes"/>
      <point x="691" y="-402"/>
      <point x="781" y="-472"/>
      <point x="937" y="-472" type="curve" smooth="yes"/>
      <point x="1010" y="-472"/>
      <point x="1086" y="-459"/>
      <point x="1153" y="-438" type="curve" smooth="yes"/>
      <point x="1181" y="-429"/>
      <point x="1194" y="-399"/>
      <point x="1190" y="-353" type="curve" smooth="yes"/>
      <point x="1186" y="-307"/>
      <point x="1168" y="-281"/>
      <point x="1142" y="-285" type="curve" smooth="yes"/>
      <point x="1099" y="-292"/>
      <point x="1061" y="-298"/>
      <point x="1022" y="-298" type="curve" smooth="yes"/>
      <point x="965" y="-298"/>
      <point x="934" y="-278"/>
      <point x="934" y="-231" type="curve" smooth="yes"/>
      <point x="934" y="-156"/>
      <point x="1009" y="-66"/>
      <point x="1131" y="31" type="curve"/>
      <point x="1153" y="50"/>
      <point x="1156" y="69"/>
      <point x="1146" y="97" type="curve" smooth="yes"/>
      <point x="760" y="1144" type="line" smooth="yes"/>
      <point x="743" y="1190"/>
      <point x="707" y="1209"/>
      <point x="619" y="1209" type="curve" smooth="yes"/>
    </contour>
    <contour>
      <point x="339" y="455" type="line"/>
      <point x="339" y="220" type="line"/>
      <point x="903" y="220" type="line"/>
      <point x="903" y="455" type="line"/>
    </contour>
  </outline>
</glyph>
<glyph name="dcaron" format="1">
  <advance width="1228"/>
  <unicode hex="010F"/>
  <outline>
    <contour>
      <point x="734" y="1312" type="line" smooth="yes"/>
      <point x="689" y="1312"/>
      <point x="671" y="1294"/>
      <point x="671" y="1249" type="curve" smooth="yes"/>
      <point x="671" y="838" type="line"/>
      <point x="617" y="906"/>
      <point x="541" y="946"/>
      <point x="453" y="946" type="curve" smooth="yes"/>
      <point x="211" y="946"/>
      <point x="73" y="732"/>
      <point x="73" y="462" type="curve" smooth="yes"/>
      <point x="73" y="192"/>
      <point x="211" y="-22"/>
      <point x="453" y="-22" type="curve" smooth="yes"/>
      <point x="563" y="-22"/>
      <point x="652" y="34"/>
      <point x="711" y="127" type="curve"/>
      <point x="711" y="63" type="line" smooth="yes"/>
      <point x="711" y="18"/>
      <point x="729" y="0"/>
      <point x="774" y="0" type="curve" smooth="yes"/>
      <point x="858" y="0" type="line" smooth="yes"/>
      <point x="903" y="0"/>
      <point x="921" y="18"/>
      <point x="921" y="63" type="curve" smooth="yes"/>
      <point x="921" y="1249" type="line" smooth="yes"/>
      <point x="921" y="1294"/>
      <point x="903" y="1312"/>
      <point x="858" y="1312" type="curve" smooth="yes"/>
    </contour>
    <contour>
      <point x="594" y="714"/>
      <point x="678" y="626"/>
      <point x="678" y="462" type="curve" smooth="yes"/>
      <point x="678" y="298"/>
      <point x="594" y="210"/>
      <point x="493" y="210" type="curve" smooth="yes"/>
      <point x="395" y="210"/>
      <point x="335" y="308"/>
      <point x="335" y="462" type="curve" smooth="yes"/>
      <point x="335" y="616"/>
      <point x="395" y="714"/>
      <point x="493" y="714" type="curve" smooth="yes"/>
    </contour>
    <component base="quoteright" xOffset="700" yOffset="311" xScale="0.83" yScale="0.83"/>
  </outline>
</glyph>
<glyph name="dcroat" format="1">
  <advance width="1228"/>
  <unicode hex="0111"/>
  <outline>
    <contour>
      <point x="874" y="1312" type="line" smooth="yes"/>
      <point x="829" y="1312"/>
      <point x="811" y="1294"/>
      <point x="811" y="1249" type="curve" smooth="yes"/>
      <point x="811" y="788" type="line"/>
      <point x="744" y="862"/>
      <point x="654" y="906"/>
      <point x="548" y="906" type="curve" smooth="yes"/>
      <point x="279" y="906"/>
      <point x="123" y="700"/>
      <point x="123" y="442" type="curve" smooth="yes"/>
      <point x="123" y="184"/>
      <point x="279" y="-22"/>
      <point x="548" y="-22" type="curve" smooth="yes"/>
      <point x="676" y="-22"/>
      <point x="783" y="42"/>
      <point x="851" y="147" type="curve"/>
      <point x="851" y="63" type="line" smooth="yes"/>
      <point x="851" y="18"/>
      <point x="869" y="0"/>
      <point x="914" y="0" type="curve" smooth="yes"/>
      <point x="998" y="0" type="line" smooth="yes"/>
      <point x="1043" y="0"/>
      <point x="1061" y="18"/>
      <point x="1061" y="63" type="curve" smooth="yes"/>
      <point x="1061" y="1249" type="line" smooth="yes"/>
      <point x="1061" y="1294"/>
      <point x="1043" y="1312"/>
      <point x="998" y="1312" type="curve" smooth="yes"/>
    </contour>
    <contour>
      <point x="713" y="674"/>
      <point x="818" y="594"/>
      <point x="818" y="442" type="curve" smooth="yes"/>
      <point x="818" y="291"/>
      <point x="713" y="210"/>
      <point x="588" y="210" type="curve" smooth="yes"/>
      <point x="463" y="210"/>
      <point x="385" y="300"/>
      <point x="385" y="442" type="curve" smooth="yes"/>
      <point x="385" y="584"/>
      <point x="463" y="674"/>
      <point x="588" y="674" type="curve" smooth="yes"/>
    </contour>
    <contour>
      <point x="583" y="1187" type="line"/>
      <point x="538" y="1187"/>
      <point x="520" y="1169"/>
      <point x="520" y="1084" type="curve" smooth="yes"/>
      <point x="520" y="999"/>
      <point x="538" y="982"/>
      <point x="583" y="982" type="curve" smooth="yes"/>
      <point x="1145" y="982" type="line" smooth="yes"/>
      <point x="1190" y="982"/>
      <point x="1208" y="999"/>
      <point x="1208" y="1084" type="curve" smooth="yes"/>
      <point x="1208" y="1169"/>
      <point x="1190" y="1187"/>
      <point x="1145" y="1187" type="curve" smooth="yes"/>
    </contour>
  </outline>
</glyph>
<glyph name="eogonek" format="1">
  <advance width="1228"/>
  <unicode hex="0119"/>
  <outline>
    <contour>
      <point x="305" y="946"/>
      <point x="120" y="742"/>
      <point x="120" y="462" type="curve" smooth="yes"/>
      <point x="120" y="182"/>
      <point x="285" y="-22"/>
      <point x="584" y="-22" type="curve" smooth="yes"/>
      <point x="626" y="-22"/>
      <point x="669" y="-20"/>
      <point x="712" y="-15" type="curve"/>
      <point x="617" y="-84"/>
      <point x="549" y="-162"/>
      <point x="549" y="-269" type="curve" smooth="yes"/>
      <point x="549" y="-402"/>
      <point x="639" y="-472"/>
      <point x="795" y="-472" type="curve" smooth="yes"/>
      <point x="868" y="-472"/>
      <point x="944" y="-459"/>
      <point x="1011" y="-438" type="curve" smooth="yes"/>
      <point x="1039" y="-429"/>
      <point x="1052" y="-399"/>
      <point x="1048" y="-353" type="curve" smooth="yes"/>
      <point x="1044" y="-307"/>
      <point x="1026" y="-281"/>
      <point x="1000" y="-285" type="curve" smooth="yes"/>
      <point x="957" y="-292"/>
      <point x="919" y="-298"/>
      <point x="880" y="-298" type="curve" smooth="yes"/>
      <point x="823" y="-298"/>
      <point x="792" y="-278"/>
      <point x="792" y="-231" type="curve" smooth="yes"/>
      <point x="792" y="-168"/>
      <point x="843" y="-92"/>
      <point x="959" y="6" type="curve" smooth="yes"/>
      <point x="981" y="26"/>
      <point x="1006" y="46"/>
      <point x="1034" y="67" type="curve"/>
      <point x="1058" y="87"/>
      <point x="1068" y="113"/>
      <point x="1051" y="176" type="curve" smooth="yes"/>
      <point x="1029" y="258"/>
      <point x="1003" y="273"/>
      <point x="960" y="260" type="curve" smooth="yes"/>
      <point x="828" y="220"/>
      <point x="712" y="205"/>
      <point x="604" y="205" type="curve" smooth="yes"/>
      <point x="487" y="205"/>
      <point x="407" y="262"/>
      <point x="381" y="370" type="curve"/>
      <point x="1023" y="370" type="line" smooth="yes"/>
      <point x="1068" y="370"/>
      <point x="1086" y="387"/>
      <point x="1086" y="432" type="curve" smooth="yes"/>
      <point x="1086" y="729"/>
      <point x="926" y="946"/>
      <point x="614" y="946" type="curve" smooth="yes"/>
    </contour>
    <contour>
      <point x="729" y="719"/>
      <point x="809" y="661"/>
      <point x="831" y="565" type="curve"/>
      <point x="385" y="565" type="line"/>
      <point x="414" y="669"/>
      <point x="494" y="719"/>
      <point x="614" y="719" type="curve" smooth="yes"/>
    </contour>
  </outline>
</glyph>
<glyph name="Hbar" format="1">
  <advance width="1228"/>
  <unicode hex="0126"/>
  <outline>
    <contour>
      <point x="83" y="1008" type="line" smooth="yes"/>
      <point x="38" y="1008"/>
      <point x="20" y="994"/>
      <point x="20" y="915" type="curve" smooth="yes"/>
      <point x="20" y="837"/>
      <point x="38" y="823"/>
      <point x="83" y="823" type="curve" smooth="yes"/>
      <point x="1145" y="823" type="line" smooth="yes"/>
      <point x="1190" y="823"/>
      <point x="1208" y="837"/>
      <point x="1208" y="915" type="curve" smooth="yes"/>
      <point x="1208" y="994"/>
      <point x="1190" y="1008"/>
      <point x="1145" y="1008" type="curve" smooth="yes"/>
    </contour>
    <component base="H"/>
  </outline>
</glyph>
<glyph name="hbar" format="1">
  <advance width="1228"/>
  <unicode hex="0127"/>
  <outline>
    <contour>
      <point x="233" y="1312" type="line" smooth="yes"/>
      <point x="188" y="1312"/>
      <point x="170" y="1294"/>
      <point x="170" y="1249" type="curve" smooth="yes"/>
      <point x="170" y="63" type="line" smooth="yes"/>
      <point x="170" y="18"/>
      <point x="188" y="0"/>
      <point x="233" y="0" type="curve" smooth="yes"/>
      <point x="357" y="0" type="line" smooth="yes"/>
      <point x="402" y="0"/>
      <point x="420" y="18"/>
      <point x="420" y="63" type="curve" smooth="yes"/>
      <point x="420" y="278" type="line" smooth="yes"/>
      <point x="420" y="466"/>
      <point x="556" y="629"/>
      <point x="685" y="629" type="curve" smooth="yes"/>
      <point x="783" y="629"/>
      <point x="822" y="569"/>
      <point x="822" y="471" type="curve" smooth="yes"/>
      <point x="822" y="63" type="line" smooth="yes"/>
      <point x="822" y="18"/>
      <point x="840" y="0"/>
      <point x="885" y="0" type="curve" smooth="yes"/>
      <point x="1009" y="0" type="line" smooth="yes"/>
      <point x="1054" y="0"/>
      <point x="1072" y="18"/>
      <point x="1072" y="63" type="curve" smooth="yes"/>
      <point x="1072" y="530" type="line" smooth="yes"/>
      <point x="1072" y="730"/>
      <point x="949" y="866"/>
      <point x="750" y="866" type="curve" smooth="yes"/>
      <point x="621" y="866"/>
      <point x="508" y="801"/>
      <point x="420" y="698" type="curve"/>
      <point x="420" y="1249" type="line" smooth="yes"/>
      <point x="420" y="1294"/>
      <point x="402" y="1312"/>
      <point x="357" y="1312" type="curve" smooth="yes"/>
    </contour>
    <contour>
      <point x="93" y="1155" type="line" smooth="yes"/>
      <point x="48" y="1155"/>
      <point x="30" y="1137"/>
      <point x="30" y="1052" type="curve" smooth="yes"/>
      <point x="30" y="967"/>
      <point x="48" y="950"/>
      <point x="93" y="950" type="curve" smooth="yes"/>
      <point x="655" y="950" type="line" smooth="yes"/>
      <point x="700" y="950"/>
      <point x="718" y="967"/>
      <point x="718" y="1052" type="curve" smooth="yes"/>
      <point x="718" y="1137"/>
      <point x="700" y="1155"/>
      <point x="655" y="1155" type="curve" smooth="yes"/>
    </contour>
  </outline>
</glyph>
<glyph name="IJ" format="1">
  <advance width="1228"/>
  <unicode hex="0132"/>
  <outline>
    <contour>
      <point x="916" y="1187" type="line" smooth="yes"/>
      <point x="871" y="1187"/>
      <point x="853" y="1169"/>
      <point x="853" y="1124" type="curve" smooth="yes"/>
      <point x="853" y="349" type="line" smooth="yes"/>
      <point x="853" y="253"/>
      <point x="815" y="215"/>
      <point x="734" y="215" type="curve" smooth="yes"/>
      <point x="697" y="215"/>
      <point x="641" y="226"/>
      <point x="593" y="241" type="curve" smooth="yes"/>
      <point x="552" y="254"/>
      <point x="520" y="235"/>
      <point x="499" y="153" type="curve" smooth="yes"/>
      <point x="478" y="69"/>
      <point x="488" y="35"/>
      <point x="532" y="18" type="curve" smooth="yes"/>
      <point x="600" y="-8"/>
      <point x="676" y="-22"/>
      <point x="741" y="-22" type="curve" smooth="yes"/>
      <point x="980" y="-22"/>
      <point x="1103" y="96"/>
      <point x="1103" y="333" type="curve" smooth="yes"/>
      <point x="1103" y="1124" type="line" smooth="yes"/>
      <point x="1103" y="1169"/>
      <point x="1085" y="1187"/>
      <point x="1040" y="1187" type="curve" smooth="yes"/>
    </contour>
    <contour>
      <point x="193" y="1187" type="line" smooth="yes"/>
      <point x="148" y="1187"/>
      <point x="130" y="1169"/>
      <point x="130" y="1124" type="curve" smooth="yes"/>
      <point x="130" y="63" type="line" smooth="yes"/>
      <point x="130" y="18"/>
      <point x="148" y="0"/>
      <point x="193" y="0" type="curve" smooth="yes"/>
      <point x="317" y="0" type="line" smooth="yes"/>
      <point x="362" y="0"/>
      <point x="380" y="18"/>
      <point x="380" y="63" type="curve" smooth="yes"/>
      <point x="380" y="1124" type="line" smooth="yes"/>
      <point x="380" y="1169"/>
      <point x="362" y="1187"/>
      <point x="317" y="1187" type="curve" smooth="yes"/>
    </contour>
  </outline>
</glyph>
<glyph name="ij" format="1">
  <advance width="1228"/>
  <unicode hex="0133"/>
  <outline>
    <contour>
      <point x="847" y="924" type="line" smooth="yes"/>
      <point x="802" y="924"/>
      <point x="784" y="906"/>
      <point x="784" y="861" type="curve" smooth="yes"/>
      <point x="784" y="-44" type="line" smooth="yes"/>
      <point x="784" y="-140"/>
      <point x="746" y="-178"/>
      <point x="665" y="-178" type="curve" smooth="yes"/>
      <point x="628" y="-178"/>
      <point x="572" y="-167"/>
      <point x="524" y="-152" type="curve" smooth="yes"/>
      <point x="483" y="-139"/>
      <point x="451" y="-158"/>
      <point x="430" y="-240" type="curve" smooth="yes"/>
      <point x="409" y="-324"/>
      <point x="419" y="-358"/>
      <point x="463" y="-375" type="curve" smooth="yes"/>
      <point x="531" y="-401"/>
      <point x="607" y="-415"/>
      <point x="672" y="-415" type="curve" smooth="yes"/>
      <point x="911" y="-415"/>
      <point x="1034" y="-297"/>
      <point x="1034" y="-60" type="curve" smooth="yes"/>
      <point x="1034" y="861" type="line" smooth="yes"/>
      <point x="1034" y="906"/>
      <point x="1016" y="924"/>
      <point x="971" y="924" type="curve" smooth="yes"/>
    </contour>
    <contour>
      <point x="257" y="924" type="line" smooth="yes"/>
      <point x="212" y="924"/>
      <point x="194" y="906"/>
      <point x="194" y="861" type="curve" smooth="yes"/>
      <point x="194" y="63" type="line" smooth="yes"/>
      <point x="194" y="18"/>
      <point x="212" y="0"/>
      <point x="257" y="0" type="curve" smooth="yes"/>
      <point x="381" y="0" type="line" smooth="yes"/>
      <point x="426" y="0"/>
      <point x="444" y="18"/>
      <point x="444" y="63" type="curve" smooth="yes"/>
      <point x="444" y="861" type="line" smooth="yes"/>
      <point x="444" y="906"/>
      <point x="426" y="924"/>
      <point x="381" y="924" type="curve" smooth="yes"/>
    </contour>
    <contour>
      <point x="221" y="1383"/>
      <point x="194" y="1365"/>
      <point x="194" y="1320" type="curve" smooth="yes"/>
      <point x="194" y="1156" type="line" smooth="yes"/>
      <point x="194" y="1111"/>
      <point x="226" y="1093"/>
      <point x="321" y="1093" type="curve" smooth="yes"/>
      <point x="416" y="1093"/>
      <point x="444" y="1111"/>
      <point x="444" y="1156" type="curve" smooth="yes"/>
      <point x="444" y="1320" type="line" smooth="yes"/>
      <point x="444" y="1365"/>
      <point x="411" y="1383"/>
      <point x="316" y="1383" type="curve" smooth="yes"/>
    </contour>
    <contour>
      <point x="811" y="1383"/>
      <point x="784" y="1365"/>
      <point x="784" y="1320" type="curve" smooth="yes"/>
      <point x="784" y="1156" type="line" smooth="yes"/>
      <point x="784" y="1111"/>
      <point x="816" y="1093"/>
      <point x="911" y="1093" type="curve" smooth="yes"/>
      <point x="1006" y="1093"/>
      <point x="1034" y="1111"/>
      <point x="1034" y="1156" type="curve" smooth="yes"/>
      <point x="1034" y="1320" type="line" smooth="yes"/>
      <point x="1034" y="1365"/>
      <point x="1001" y="1383"/>
      <point x="906" y="1383" type="curve" smooth="yes"/>
    </contour>
  </outline>
</glyph>
<glyph name="Lslash" format="1">
  <advance width="1228"/>
  <unicode hex="0141"/>
  <outline>
    <contour>
      <point x="55" y="487" type="line" smooth="yes"/>
      <point x="16" y="464"/>
      <point x="10" y="439"/>
      <point x="53" y="366" type="curve" smooth="yes"/>
      <point x="97" y="293"/>
      <point x="121" y="288"/>
      <point x="159" y="311" type="curve" smooth="yes"/>
      <point x="815" y="700" type="line" smooth="yes"/>
      <point x="853" y="723"/>
      <point x="860" y="747"/>
      <point x="817" y="820" type="curve" smooth="yes"/>
      <point x="773" y="893"/>
      <point x="749" y="899"/>
      <point x="710" y="876" type="curve" smooth="yes"/>
    </contour>
    <contour>
      <point x="332" y="1187" type="line" smooth="yes"/>
      <point x="287" y="1187"/>
      <point x="269" y="1169"/>
      <point x="269" y="1124" type="curve" smooth="yes"/>
      <point x="269" y="63" type="line" smooth="yes"/>
      <point x="269" y="18"/>
      <point x="287" y="0"/>
      <point x="332" y="0" type="curve" smooth="yes"/>
      <point x="519" y="0" type="line"/>
      <point x="519" y="1124" type="line" smooth="yes"/>
      <point x="519" y="1169"/>
      <point x="501" y="1187"/>
      <point x="456" y="1187" type="curve" smooth="yes"/>
    </contour>
    <contour>
      <point x="413" y="235" type="line"/>
      <point x="413" y="0" type="line"/>
      <point x="1005" y="0" type="line" smooth="yes"/>
      <point x="1050" y="0"/>
      <point x="1068" y="22"/>
      <point x="1068" y="117" type="curve" smooth="yes"/>
      <point x="1068" y="212"/>
      <point x="1050" y="235"/>
      <point x="1005" y="235" type="curve" smooth="yes"/>
    </contour>
  </outline>
</glyph>
<glyph name="lslash" format="1">
  <advance width="1228"/>
  <unicode hex="0142"/>
  <outline>
    <contour>
      <point x="235" y="578" type="line" smooth="yes"/>
      <point x="196" y="555"/>
      <point x="190" y="530"/>
      <point x="233" y="457" type="curve" smooth="yes"/>
      <point x="277" y="384"/>
      <point x="301" y="379"/>
      <point x="339" y="402" type="curve" smooth="yes"/>
      <point x="995" y="791" type="line" smooth="yes"/>
      <point x="1033" y="814"/>
      <point x="1040" y="838"/>
      <point x="997" y="911" type="curve" smooth="yes"/>
      <point x="953" y="984"/>
      <point x="929" y="990"/>
      <point x="890" y="967" type="curve" smooth="yes"/>
    </contour>
    <component base="l"/>
  </outline>
</glyph>
<glyph name="Eng" format="1">
  <advance width="1228"/>
  <unicode hex="014A"/>
  <outline>
    <contour>
      <point x="838" y="331" type="line"/>
      <point x="838" y="-44" type="line" smooth="yes"/>
      <point x="838" y="-140"/>
      <point x="800" y="-178"/>
      <point x="719" y="-178" type="curve" smooth="yes"/>
      <point x="682" y="-178"/>
      <point x="626" y="-167"/>
      <point x="578" y="-152" type="curve" smooth="yes"/>
      <point x="537" y="-139"/>
      <point x="505" y="-158"/>
      <point x="484" y="-240" type="curve" smooth="yes"/>
      <point x="463" y="-324"/>
      <point x="473" y="-358"/>
      <point x="517" y="-375" type="curve" smooth="yes"/>
      <point x="585" y="-401"/>
      <point x="661" y="-415"/>
      <point x="726" y="-415" type="curve" smooth="yes"/>
      <point x="965" y="-415"/>
      <point x="1088" y="-297"/>
      <point x="1088" y="-60" type="curve" smooth="yes"/>
      <point x="1088" y="331" type="line"/>
    </contour>
    <component base="N"/>
  </outline>
</glyph>
<glyph name="eng" format="1">
  <advance width="1228"/>
  <unicode hex="014B"/>
  <outline>
    <contour>
      <point x="822" y="331" type="line"/>
      <point x="822" y="-44" type="line" smooth="yes"/>
      <point x="822" y="-140"/>
      <point x="784" y="-178"/>
      <point x="703" y="-178" type="curve" smooth="yes"/>
      <point x="666" y="-178"/>
      <point x="610" y="-167"/>
      <point x="562" y="-152" type="curve" smooth="yes"/>
      <point x="521" y="-139"/>
      <point x="489" y="-158"/>
      <point x="468" y="-240" type="curve" smooth="yes"/>
      <point x="447" y="-324"/>
      <point x="457" y="-358"/>
      <point x="501" y="-375" type="curve" smooth="yes"/>
      <point x="569" y="-401"/>
      <point x="645" y="-415"/>
      <point x="710" y="-415" type="curve" smooth="yes"/>
      <point x="949" y="-415"/>
      <point x="1072" y="-297"/>
      <point x="1072" y="-60" type="curve" smooth="yes"/>
      <point x="1072" y="331" type="line"/>
    </contour>
    <component base="n"/>
  </outline>
</glyph>
<glyph name="OE" format="1">
  <advance width="1228"/>
  <unicode hex="0152"/>
  <outline>
    <contour>
      <point x="280" y="1187"/>
      <point x="53" y="974"/>
      <point x="53" y="594" type="curve" smooth="yes"/>
      <point x="53" y="214"/>
      <point x="280" y="0"/>
      <point x="604" y="0" type="curve"/>
      <point x="590" y="235" type="line"/>
      <point x="437" y="235"/>
      <point x="313" y="350"/>
      <point x="313" y="594" type="curve" smooth="yes"/>
      <point x="313" y="838"/>
      <point x="437" y="952"/>
      <point x="590" y="952" type="curve"/>
      <point x="604" y="1187" type="line"/>
    </contour>
    <contour>
      <point x="739" y="235" type="line"/>
      <point x="739" y="0" type="line"/>
      <point x="1117" y="0" type="line" smooth="yes"/>
      <point x="1162" y="0"/>
      <point x="1180" y="22"/>
      <point x="1180" y="117" type="curve" smooth="yes"/>
      <point x="1180" y="212"/>
      <point x="1162" y="235"/>
      <point x="1117" y="235" type="curve" smooth="yes"/>
    </contour>
    <contour>
      <point x="604" y="1187" type="line"/>
      <point x="550" y="1138" type="line"/>
      <point x="550" y="50" type="line"/>
      <point x="604" y="0" type="line"/>
      <point x="800" y="0" type="line"/>
      <point x="800" y="1187" type="line"/>
    </contour>
    <contour>
      <point x="739" y="729" type="line"/>
      <point x="739" y="494" type="line"/>
      <point x="1034" y="494" type="line" smooth="yes"/>
      <point x="1079" y="494"/>
      <point x="1097" y="516"/>
      <point x="1097" y="611" type="curve" smooth="yes"/>
      <point x="1097" y="706"/>
      <point x="1079" y="729"/>
      <point x="1034" y="729" type="curve" smooth="yes"/>
    </contour>
    <contour>
      <point x="739" y="1187" type="line"/>
      <point x="739" y="952" type="line"/>
      <point x="1097" y="952" type="line" smooth="yes"/>
      <point x="1142" y="952"/>
      <point x="1160" y="974"/>
      <point x="1160" y="1069" type="curve" smooth="yes"/>
      <point x="1160" y="1164"/>
      <point x="1142" y="1187"/>
      <point x="1097" y="1187" type="curve" smooth="yes"/>
    </contour>
  </outline>
</glyph>
<glyph name="Tbar" format="1">
  <advance width="1228"/>
  <unicode hex="0166"/>
  <outline>
    <contour>
      <point x="283" y="575" type="line" smooth="yes"/>
      <point x="238" y="575"/>
      <point x="220" y="557"/>
      <point x="220" y="462" type="curve" smooth="yes"/>
      <point x="220" y="367"/>
      <point x="238" y="350"/>
      <point x="283" y="350" type="curve" smooth="yes"/>
      <point x="945" y="350" type="line" smooth="yes"/>
      <point x="990" y="350"/>
      <point x="1008" y="367"/>
      <point x="1008" y="462" type="curve" smooth="yes"/>
      <point x="1008" y="557"/>
      <point x="990" y="575"/>
      <point x="945" y="575" type="curve" smooth="yes"/>
    </contour>
    <component base="T"/>
  </outline>
</glyph>
<glyph name="uogonek" format="1">
  <advance width="1228"/>
  <unicode hex="0173"/>
  <outline>
    <contour>
      <point x="871" y="924" type="line" smooth="yes"/>
      <point x="826" y="924"/>
      <point x="808" y="906"/>
      <point x="808" y="861" type="curve" smooth="yes"/>
      <point x="808" y="566" type="line" smooth="yes"/>
      <point x="808" y="378"/>
      <point x="672" y="215"/>
      <point x="543" y="215" type="curve" smooth="yes"/>
      <point x="445" y="215"/>
      <point x="406" y="275"/>
      <point x="406" y="373" type="curve" smooth="yes"/>
      <point x="406" y="861" type="line" smooth="yes"/>
      <point x="406" y="906"/>
      <point x="388" y="924"/>
      <point x="343" y="924" type="curve" smooth="yes"/>
      <point x="219" y="924" type="line" smooth="yes"/>
      <point x="174" y="924"/>
      <point x="156" y="906"/>
      <point x="156" y="861" type="curve" smooth="yes"/>
      <point x="156" y="314" type="line" smooth="yes"/>
      <point x="156" y="114"/>
      <point x="279" y="-22"/>
      <point x="478" y="-22" type="curve" smooth="yes"/>
      <point x="627" y="-22"/>
      <point x="756" y="65"/>
      <point x="848" y="198" type="curve"/>
      <point x="848" y="24" type="line"/>
      <point x="725" y="-54"/>
      <point x="624" y="-141"/>
      <point x="624" y="-269" type="curve" smooth="yes"/>
      <point x="624" y="-402"/>
      <point x="714" y="-472"/>
      <point x="870" y="-472" type="curve" smooth="yes"/>
      <point x="943" y="-472"/>
      <point x="1019" y="-459"/>
      <point x="1086" y="-438" type="curve" smooth="yes"/>
      <point x="1114" y="-429"/>
      <point x="1127" y="-399"/>
      <point x="1123" y="-353" type="curve" smooth="yes"/>
      <point x="1119" y="-307"/>
      <point x="1101" y="-281"/>
      <point x="1075" y="-285" type="curve" smooth="yes"/>
      <point x="1032" y="-292"/>
      <point x="994" y="-298"/>
      <point x="955" y="-298" type="curve" smooth="yes"/>
      <point x="898" y="-298"/>
      <point x="867" y="-278"/>
      <point x="867" y="-231" type="curve" smooth="yes"/>
      <point x="867" y="-160"/>
      <point x="933" y="-77"/>
      <point x="1040" y="12" type="curve" smooth="yes"/>
      <point x="1052" y="22"/>
      <point x="1058" y="38"/>
      <point x="1058" y="63" type="curve" smooth="yes"/>
      <point x="1058" y="861" type="line" smooth="yes"/>
      <point x="1058" y="906"/>
      <point x="1040" y="924"/>
      <point x="995" y="924" type="curve" smooth="yes"/>
    </contour>
  </outline>
</glyph>
<glyph name="dotlessj" format="1">
  <advance width="1228"/>
  <unicode hex="0237"/>
  <outline>
    <contour>
      <point x="673" y="924" type="line"/>
      <point x="673" y="-22" type="line" smooth="yes"/>
      <point x="673" y="-133"/>
      <point x="626" y="-178"/>
      <point x="544" y="-178" type="curve" smooth="yes"/>
      <point x="474" y="-178"/>
      <point x="384" y="-148"/>
      <point x="293" y="-108" type="curve" smooth="yes"/>
      <point x="252" y="-90"/>
      <point x="213" y="-104"/>
      <point x="183" y="-184" type="curve" smooth="yes"/>
      <point x="153" y="-264"/>
      <point x="165" y="-301"/>
      <point x="209" y="-323" type="curve" smooth="yes"/>
      <point x="326" y="-382"/>
      <point x="457" y="-415"/>
      <point x="566" y="-415" type="curve" smooth="yes"/>
      <point x="798" y="-415"/>
      <point x="923" y="-284"/>
      <point x="923" y="-35" type="curve" smooth="yes"/>
      <point x="923" y="861" type="line" smooth="yes"/>
      <point x="923" y="906"/>
      <point x="905" y="924"/>
      <point x="860" y="924" type="curve" smooth="yes"/>
    </contour>
    <contour>
      <point x="290" y="924" type="line" smooth="yes"/>
      <point x="245" y="924"/>
      <point x="227" y="901"/>
      <point x="227" y="811" type="curve" smooth="yes"/>
      <point x="227" y="721"/>
      <point x="245" y="699"/>
      <point x="290" y="699" type="curve" smooth="yes"/>
      <point x="774" y="699" type="line"/>
      <point x="774" y="924" type="line"/>
    </contour>
  </outline>
</glyph>
<glyph name="circumflex" format="1">
  <advance width="1228"/>
  <unicode hex="02C6"/>
  <outline>
    <contour>
      <point x="614" y="1168" type="line"/>
      <point x="891" y="1027" type="line" smooth="yes"/>
      <point x="918" y="1013"/>
      <point x="950" y="1022"/>
      <point x="970" y="1065" type="curve" smooth="yes"/>
      <point x="990" y="1108"/>
      <point x="980" y="1138"/>
      <point x="953" y="1159" type="curve" smooth="yes"/>
      <point x="669" y="1388" type="line" smooth="yes"/>
      <point x="654" y="1400"/>
      <point x="635" y="1406"/>
      <point x="614" y="1406" type="curve" smooth="yes"/>
      <point x="593" y="1406"/>
      <point x="574" y="1400"/>
      <point x="559" y="1388" type="curve" smooth="yes"/>
      <point x="275" y="1159" type="line" smooth="yes"/>
      <point x="248" y="1138"/>
      <point x="238" y="1108"/>
      <point x="258" y="1065" type="curve" smooth="yes"/>
      <point x="278" y="1022"/>
      <point x="310" y="1013"/>
      <point x="337" y="1027" type="curve" smooth="yes"/>
    </contour>
  </outline>
</glyph>
<glyph name="caron" format="1">
  <advance width="1228"/>
  <unicode hex="02C7"/>
  <outline>
    <contour>
      <point x="614" y="1245" type="line"/>
      <point x="337" y="1386" type="line" smooth="yes"/>
      <point x="310" y="1400"/>
      <point x="278" y="1391"/>
      <point x="258" y="1348" type="curve" smooth="yes"/>
      <point x="238" y="1305"/>
      <point x="248" y="1275"/>
      <point x="275" y="1254" type="curve" smooth="yes"/>
      <point x="559" y="1025" type="line" smooth="yes"/>
      <point x="574" y="1013"/>
      <point x="593" y="1007"/>
      <point x="614" y="1007" type="curve" smooth="yes"/>
      <point x="635" y="1007"/>
      <point x="654" y="1013"/>
      <point x="669" y="1025" type="curve" smooth="yes"/>
      <point x="953" y="1254" type="line" smooth="yes"/>
      <point x="980" y="1275"/>
      <point x="990" y="1305"/>
      <point x="970" y="1348" type="curve" smooth="yes"/>
      <point x="950" y="1391"/>
      <point x="918" y="1400"/>
      <point x="891" y="1386" type="curve" smooth="yes"/>
    </contour>
  </outline>
</glyph>
<glyph name="dotaccent" format="1">
  <advance width="1228"/>
  <unicode hex="02D9"/>
  <outline>
    <contour>
      <point x="739" y="1280" type="line" smooth="yes"/>
      <point x="739" y="1325"/>
      <point x="706" y="1343"/>
      <point x="611" y="1343" type="curve" smooth="yes"/>
      <point x="516" y="1343"/>
      <point x="489" y="1325"/>
      <point x="489" y="1280" type="curve" smooth="yes"/>
      <point x="489" y="1116" type="line" smooth="yes"/>
      <point x="489" y="1071"/>
      <point x="521" y="1053"/>
      <point x="616" y="1053" type="curve" smooth="yes"/>
      <point x="711" y="1053"/>
      <point x="739" y="1071"/>
      <point x="739" y="1116" type="curve" smooth="yes"/>
    </contour>
  </outline>
</glyph>
<glyph name="tilde" format="1">
  <advance width="1228"/>
  <unicode hex="02DC"/>
  <outline>
    <contour>
      <point x="820" y="1057"/>
      <point x="890" y="1079"/>
      <point x="965" y="1142" type="curve" smooth="yes"/>
      <point x="990" y="1163"/>
      <point x="992" y="1205"/>
      <point x="973" y="1245" type="curve" smooth="yes"/>
      <point x="952" y="1289"/>
      <point x="921" y="1311"/>
      <point x="891" y="1295" type="curve" smooth="yes"/>
      <point x="849" y="1273"/>
      <point x="805" y="1262"/>
      <point x="767" y="1262" type="curve" smooth="yes"/>
      <point x="668" y="1262"/>
      <point x="579" y="1325"/>
      <point x="469" y="1325" type="curve" smooth="yes"/>
      <point x="409" y="1325"/>
      <point x="339" y="1303"/>
      <point x="264" y="1240" type="curve" smooth="yes"/>
      <point x="239" y="1219"/>
      <point x="237" y="1177"/>
      <point x="256" y="1137" type="curve" smooth="yes"/>
      <point x="277" y="1093"/>
      <point x="308" y="1071"/>
      <point x="338" y="1087" type="curve" smooth="yes"/>
      <point x="380" y="1109"/>
      <point x="424" y="1120"/>
      <point x="462" y="1120" type="curve" smooth="yes"/>
      <point x="560" y="1120"/>
      <point x="649" y="1057"/>
      <point x="760" y="1057" type="curve" smooth="yes"/>
    </contour>
  </outline>
</glyph>
<glyph name="commaaccent" format="1">
  <advance width="1228"/>
  <unicode hex="0326"/>
  <outline>
    <contour>
      <point x="757" y="-189" type="line" smooth="yes"/>
      <point x="768" y="-165"/>
      <point x="760" y="-146"/>
      <point x="737" y="-146" type="curve" smooth="yes"/>
      <point x="531" y="-146" type="line" smooth="yes"/>
      <point x="512" y="-146"/>
      <point x="498" y="-156"/>
      <point x="495" y="-173" type="curve" smooth="yes"/>
      <point x="436" y="-486" type="line" smooth="yes"/>
      <point x="428" y="-529"/>
      <point x="460" y="-545"/>
      <point x="512" y="-545" type="curve" smooth="yes"/>
      <point x="560" y="-545"/>
      <point x="597" y="-529"/>
      <point x="613" y="-495" type="curve" smooth="yes"/>
    </contour>
  </outline>
</glyph>
<glyph name="quoteleft" format="1">
  <advance width="1228"/>
  <unicode hex="2018"/>
  <outline>
    <contour>
      <point x="653" y="1307"/>
      <point x="615" y="1289"/>
      <point x="593" y="1239" type="curve" smooth="yes"/>
      <point x="386" y="772" type="line" smooth="yes"/>
      <point x="370" y="736"/>
      <point x="381" y="709"/>
      <point x="414" y="709" type="curve" smooth="yes"/>
      <point x="657" y="709" type="line" smooth="yes"/>
      <point x="685" y="709"/>
      <point x="704" y="723"/>
      <point x="709" y="749" type="curve" smooth="yes"/>
      <point x="799" y="1221" type="line" smooth="yes"/>
      <point x="811" y="1283"/>
      <point x="785" y="1307"/>
      <point x="719" y="1307" type="curve" smooth="yes"/>
    </contour>
  </outline>
</glyph>
<glyph name="quotesinglbase" format="1">
  <advance width="1228"/>
  <unicode hex="201A"/>
  <outline>
    <contour>
      <point x="556" y="304" type="line" smooth="yes"/>
      <point x="528" y="304"/>
      <point x="509" y="290"/>
      <point x="504" y="264" type="curve" smooth="yes"/>
      <point x="414" y="-208" type="line" smooth="yes"/>
      <point x="402" y="-270"/>
      <point x="428" y="-294"/>
      <point x="494" y="-294" type="curve" smooth="yes"/>
      <point x="560" y="-294"/>
      <point x="598" y="-276"/>
      <point x="620" y="-226" type="curve" smooth="yes"/>
      <point x="827" y="241" type="line" smooth="yes"/>
      <point x="843" y="277"/>
      <point x="832" y="304"/>
      <point x="799" y="304" type="curve" smooth="yes"/>
    </contour>
  </outline>
</glyph>
<glyph name="bullet" format="1">
  <advance width="1228"/>
  <unicode hex="2022"/>
  <outline>
    <contour>
      <point x="435" y="858"/>
      <point x="359" y="827"/>
      <point x="359" y="750" type="curve" smooth="yes"/>
      <point x="359" y="418" type="line" smooth="yes"/>
      <point x="359" y="341"/>
      <point x="435" y="310"/>
      <point x="614" y="310" type="curve" smooth="yes"/>
      <point x="793" y="310"/>
      <point x="869" y="341"/>
      <point x="869" y="418" type="curve" smooth="yes"/>
      <point x="869" y="750" type="line" smooth="yes"/>
      <point x="869" y="827"/>
      <point x="793" y="858"/>
      <point x="614" y="858" type="curve" smooth="yes"/>
    </contour>
  </outline>
</glyph>
<glyph name="franc" format="1">
  <advance width="1228"/>
  <unicode hex="20A3"/>
  <outline>
    <contour>
      <point x="283" y="1187" type="line" smooth="yes"/>
      <point x="238" y="1187"/>
      <point x="220" y="1169"/>
      <point x="220" y="1124" type="curve" smooth="yes"/>
      <point x="220" y="63" type="line" smooth="yes"/>
      <point x="220" y="18"/>
      <point x="238" y="0"/>
      <point x="283" y="0" type="curve" smooth="yes"/>
      <point x="407" y="0" type="line" smooth="yes"/>
      <point x="452" y="0"/>
      <point x="470" y="18"/>
      <point x="470" y="63" type="curve" smooth="yes"/>
      <point x="470" y="1187" type="line"/>
    </contour>
    <contour>
      <point x="83" y="384" type="line" smooth="yes"/>
      <point x="38" y="384"/>
      <point x="20" y="370"/>
      <point x="20" y="291" type="curve" smooth="yes"/>
      <point x="20" y="213"/>
      <point x="38" y="199"/>
      <point x="83" y="199" type="curve" smooth="yes"/>
      <point x="725" y="199" type="line" smooth="yes"/>
      <point x="770" y="199"/>
      <point x="788" y="213"/>
      <point x="788" y="291" type="curve" smooth="yes"/>
      <point x="788" y="370"/>
      <point x="770" y="384"/>
      <point x="725" y="384" type="curve" smooth="yes"/>
    </contour>
    <contour>
      <point x="361" y="737" type="line"/>
      <point x="361" y="502" type="line"/>
      <point x="904" y="502" type="line" smooth="yes"/>
      <point x="949" y="502"/>
      <point x="967" y="524"/>
      <point x="967" y="619" type="curve" smooth="yes"/>
      <point x="967" y="714"/>
      <point x="949" y="737"/>
      <point x="904" y="737" type="curve" smooth="yes"/>
    </contour>
    <contour>
      <point x="361" y="1187" type="line"/>
      <point x="361" y="952" type="line"/>
      <point x="987" y="952" type="line" smooth="yes"/>
      <point x="1032" y="952"/>
      <point x="1050" y="974"/>
      <point x="1050" y="1069" type="curve" smooth="yes"/>
      <point x="1050" y="1164"/>
      <point x="1032" y="1187"/>
      <point x="987" y="1187" type="curve" smooth="yes"/>
    </contour>
  </outline>
</glyph>
<glyph name="won" format="1">
  <advance width="1228"/>
  <unicode hex="20A9"/>
  <outline>
    <contour>
      <point x="23" y="884" type="line" smooth="yes"/>
      <point x="-22" y="884"/>
      <point x="-40" y="868"/>
      <point x="-40" y="781" type="curve" smooth="yes"/>
      <point x="-40" y="695"/>
      <point x="-22" y="679"/>
      <point x="23" y="679" type="curve" smooth="yes"/>
      <point x="540" y="679" type="line"/>
      <point x="603" y="679" type="line"/>
      <point x="673" y="679" type="line"/>
      <point x="1205" y="679" type="line" smooth="yes"/>
      <point x="1250" y="679"/>
      <point x="1268" y="695"/>
      <point x="1268" y="781" type="curve" smooth="yes"/>
      <point x="1268" y="868"/>
      <point x="1250" y="884"/>
      <point x="1205" y="884" type="curve" smooth="yes"/>
    </contour>
    <component base="W"/>
  </outline>
</glyph>
<glyph name="fi" format="1">
  <advance width="1228"/>
  <unicode hex="FB01"/>
  <outline>
    <contour>
      <point x="100" y="924" type="line" smooth="yes"/>
      <point x="55" y="924"/>
      <point x="37" y="901"/>
      <point x="37" y="811" type="curve" smooth="yes"/>
      <point x="37" y="721"/>
      <point x="55" y="699"/>
      <point x="100" y="699" type="curve" smooth="yes"/>
      <point x="823" y="699" type="line"/>
      <point x="823" y="63" type="line" smooth="yes"/>
      <point x="823" y="18"/>
      <point x="841" y="0"/>
      <point x="886" y="0" type="curve" smooth="yes"/>
      <point x="1010" y="0" type="line" smooth="yes"/>
      <point x="1055" y="0"/>
      <point x="1073" y="18"/>
      <point x="1073" y="63" type="curve" smooth="yes"/>
      <point x="1073" y="861" type="line" smooth="yes"/>
      <point x="1073" y="906"/>
      <point x="1055" y="924"/>
      <point x="1010" y="924" type="curve" smooth="yes"/>
    </contour>
    <contour>
      <point x="348" y="1317"/>
      <point x="223" y="1186"/>
      <point x="223" y="937" type="curve" smooth="yes"/>
      <point x="223" y="63" type="line" smooth="yes"/>
      <point x="223" y="18"/>
      <point x="241" y="0"/>
      <point x="286" y="0" type="curve" smooth="yes"/>
      <point x="410" y="0" type="line" smooth="yes"/>
      <point x="455" y="0"/>
      <point x="473" y="18"/>
      <point x="473" y="63" type="curve" smooth="yes"/>
      <point x="473" y="924" type="line" smooth="yes"/>
      <point x="473" y="1035"/>
      <point x="520" y="1080"/>
      <point x="602" y="1080" type="curve" smooth="yes"/>
      <point x="670" y="1080"/>
      <point x="739" y="1067"/>
      <point x="824" y="1041" type="curve" smooth="yes"/>
      <point x="867" y="1028"/>
      <point x="901" y="1043"/>
      <point x="923" y="1124" type="curve" smooth="yes"/>
      <point x="945" y="1207"/>
      <point x="930" y="1243"/>
      <point x="884" y="1260" type="curve" smooth="yes"/>
      <point x="777" y="1300"/>
      <point x="674" y="1317"/>
      <point x="580" y="1317" type="curve" smooth="yes"/>
    </contour>
  </outline>
</glyph>
<glyph name="fl" format="1">
  <advance width="1228"/>
  <unicode hex="FB02"/>
  <outline>
    <contour>
      <point x="580" y="1312" type="line" smooth="yes"/>
      <point x="358" y="1312"/>
      <point x="223" y="1186"/>
      <point x="223" y="967" type="curve" smooth="yes"/>
      <point x="223" y="63" type="line" smooth="yes"/>
      <point x="223" y="18"/>
      <point x="241" y="0"/>
      <point x="286" y="0" type="curve" smooth="yes"/>
      <point x="410" y="0" type="line" smooth="yes"/>
      <point x="455" y="0"/>
      <point x="473" y="18"/>
      <point x="473" y="63" type="curve" smooth="yes"/>
      <point x="473" y="951" type="line" smooth="yes"/>
      <point x="473" y="1046"/>
      <point x="520" y="1087"/>
      <point x="602" y="1087" type="curve" smooth="yes"/>
      <point x="823" y="1087" type="line"/>
      <point x="823" y="63" type="line" smooth="yes"/>
      <point x="823" y="18"/>
      <point x="841" y="0"/>
      <point x="886" y="0" type="curve" smooth="yes"/>
      <point x="1010" y="0" type="line" smooth="yes"/>
      <point x="1055" y="0"/>
      <point x="1073" y="18"/>
      <point x="1073" y="63" type="curve" smooth="yes"/>
      <point x="1073" y="1249" type="line" smooth="yes"/>
      <point x="1073" y="1294"/>
      <point x="1055" y="1312"/>
      <point x="1010" y="1312" type="curve" smooth="yes"/>
    </contour>
    <contour>
      <point x="100" y="864" type="line" smooth="yes"/>
      <point x="55" y="864"/>
      <point x="37" y="841"/>
      <point x="37" y="751" type="curve" smooth="yes"/>
      <point x="37" y="661"/>
      <point x="55" y="639"/>
      <point x="100" y="639" type="curve" smooth="yes"/>
      <point x="634" y="639" type="line" smooth="yes"/>
      <point x="679" y="639"/>
      <point x="697" y="661"/>
      <point x="697" y="751" type="curve" smooth="yes"/>
      <point x="697" y="841"/>
      <point x="679" y="864"/>
      <point x="634" y="864" type="curve" smooth="yes"/>
    </contour>
  </outline>
</glyph>
<glyph name="acute.case" format="1">
  <advance width="1228"/>
  <outline>
    <contour>
      <point x="416" y="1435" type="line" smooth="yes"/>
      <point x="388" y="1420"/>
      <point x="378" y="1395"/>
      <point x="392" y="1352" type="curve" smooth="yes"/>
      <point x="407" y="1305"/>
      <point x="430" y="1291"/>
      <point x="461" y="1300" type="curve" smooth="yes"/>
      <point x="937" y="1434" type="line" smooth="yes"/>
      <point x="970" y="1443"/>
      <point x="981" y="1476"/>
      <point x="945" y="1567" type="curve" smooth="yes"/>
      <point x="904" y="1670"/>
      <point x="863" y="1683"/>
      <point x="824" y="1661" type="curve" smooth="yes"/>
    </contour>
    <contour>
      <point x="614" y="1187" type="move" name="_top"/>
    </contour>
  </outline>
</glyph>
<glyph name="caron.alt" format="1">
  <advance width="1228"/>
  <outline>
    <contour>
      <point x="347" y="1312" type="line" smooth="yes"/>
      <point x="324" y="1312"/>
      <point x="308" y="1300"/>
      <point x="304" y="1279" type="curve" smooth="yes"/>
      <point x="229" y="888" type="line" smooth="yes"/>
      <point x="219" y="836"/>
      <point x="241" y="817"/>
      <point x="296" y="817" type="curve" smooth="yes"/>
      <point x="350" y="817"/>
      <point x="382" y="831"/>
      <point x="400" y="873" type="curve" smooth="yes"/>
      <point x="571" y="1260" type="line" smooth="yes"/>
      <point x="584" y="1289"/>
      <point x="575" y="1312"/>
      <point x="548" y="1312" type="curve" smooth="yes"/>
    </contour>
  </outline>
</glyph>
<glyph name="caron.case" format="1">
  <advance width="1228"/>
  <outline>
    <contour>
      <point x="614" y="1515" type="line"/>
      <point x="337" y="1656" type="line" smooth="yes"/>
      <point x="310" y="1670"/>
      <point x="278" y="1661"/>
      <point x="258" y="1618" type="curve" smooth="yes"/>
      <point x="238" y="1575"/>
      <point x="248" y="1545"/>
      <point x="275" y="1524" type="curve" smooth="yes"/>
      <point x="559" y="1295" type="line" smooth="yes"/>
      <point x="574" y="1283"/>
      <point x="593" y="1277"/>
      <point x="614" y="1277" type="curve" smooth="yes"/>
      <point x="635" y="1277"/>
      <point x="654" y="1283"/>
      <point x="669" y="1295" type="curve" smooth="yes"/>
      <point x="953" y="1524" type="line" smooth="yes"/>
      <point x="980" y="1545"/>
      <point x="990" y="1575"/>
      <point x="970" y="1618" type="curve" smooth="yes"/>
      <point x="950" y="1661"/>
      <point x="918" y="1670"/>
      <point x="891" y="1656" type="curve" smooth="yes"/>
    </contour>
    <contour>
      <point x="614" y="1187" type="move" name="_top"/>
    </contour>
  </outline>
</glyph>
<glyph name="circumflex.case" format="1">
  <advance width="1228"/>
  <outline>
    <contour>
      <point x="614" y="1438" type="line"/>
      <point x="891" y="1297" type="line" smooth="yes"/>
      <point x="918" y="1283"/>
      <point x="950" y="1292"/>
      <point x="970" y="1335" type="curve" smooth="yes"/>
      <point x="990" y="1378"/>
      <point x="980" y="1408"/>
      <point x="953" y="1429" type="curve" smooth="yes"/>
      <point x="669" y="1658" type="line" smooth="yes"/>
      <point x="654" y="1670"/>
      <point x="635" y="1676"/>
      <point x="614" y="1676" type="curve" smooth="yes"/>
      <point x="593" y="1676"/>
      <point x="574" y="1670"/>
      <point x="559" y="1658" type="curve" smooth="yes"/>
      <point x="275" y="1429" type="line" smooth="yes"/>
      <point x="248" y="1408"/>
      <point x="238" y="1378"/>
      <point x="258" y="1335" type="curve" smooth="yes"/>
      <point x="278" y="1292"/>
      <point x="310" y="1283"/>
      <point x="337" y="1297" type="curve" smooth="yes"/>
    </contour>
    <contour>
      <point x="614" y="1187" type="move" name="_top"/>
    </contour>
  </outline>
</glyph>
<glyph name="dieresis.case" format="1">
  <advance width="1228"/>
  <outline>
    <contour>
      <point x="519" y="1550" type="line" smooth="yes"/>
      <point x="519" y="1595"/>
      <point x="486" y="1613"/>
      <point x="391" y="1613" type="curve" smooth="yes"/>
      <point x="296" y="1613"/>
      <point x="269" y="1595"/>
      <point x="269" y="1550" type="curve" smooth="yes"/>
      <point x="269" y="1386" type="line" smooth="yes"/>
      <point x="269" y="1341"/>
      <point x="301" y="1323"/>
      <point x="396" y="1323" type="curve" smooth="yes"/>
      <point x="491" y="1323"/>
      <point x="519" y="1341"/>
      <point x="519" y="1386" type="curve" smooth="yes"/>
    </contour>
    <contour>
      <point x="959" y="1550" type="line" smooth="yes"/>
      <point x="959" y="1595"/>
      <point x="926" y="1613"/>
      <point x="831" y="1613" type="curve" smooth="yes"/>
      <point x="736" y="1613"/>
      <point x="709" y="1595"/>
      <point x="709" y="1550" type="curve" smooth="yes"/>
      <point x="709" y="1386" type="line" smooth="yes"/>
      <point x="709" y="1341"/>
      <point x="741" y="1323"/>
      <point x="836" y="1323" type="curve" smooth="yes"/>
      <point x="931" y="1323"/>
      <point x="959" y="1341"/>
      <point x="959" y="1386" type="curve" smooth="yes"/>
    </contour>
    <contour>
      <point x="614" y="1187" type="move" name="_top"/>
    </contour>
  </outline>
</glyph>
<glyph name="hungarumlaut.case" format="1">
  <advance width="1228"/>
  <outline>
    <contour>
      <point x="1001" y="1670"/>
      <point x="952" y="1665"/>
      <point x="930" y="1638" type="curve" smooth="yes"/>
      <point x="732" y="1395" type="line" smooth="yes"/>
      <point x="717" y="1376"/>
      <point x="721" y="1351"/>
      <point x="747" y="1337" type="curve" smooth="yes"/>
      <point x="778" y="1320"/>
      <point x="812" y="1320"/>
      <point x="835" y="1336" type="curve" smooth="yes"/>
      <point x="1133" y="1544" type="line" smooth="yes"/>
      <point x="1160" y="1563"/>
      <point x="1154" y="1601"/>
      <point x="1076" y="1636" type="curve" smooth="yes"/>
    </contour>
    <contour>
      <point x="571" y="1670"/>
      <point x="522" y="1665"/>
      <point x="500" y="1638" type="curve" smooth="yes"/>
      <point x="302" y="1395" type="line" smooth="yes"/>
      <point x="287" y="1376"/>
      <point x="291" y="1351"/>
      <point x="317" y="1337" type="curve" smooth="yes"/>
      <point x="348" y="1320"/>
      <point x="382" y="1320"/>
      <point x="405" y="1336" type="curve" smooth="yes"/>
      <point x="703" y="1544" type="line" smooth="yes"/>
      <point x="730" y="1563"/>
      <point x="724" y="1601"/>
      <point x="646" y="1636" type="curve" smooth="yes"/>
    </contour>
    <contour>
      <point x="614" y="1187" type="move" name="_top"/>
    </contour>
  </outline>
</glyph>
<glyph name="tilde.case" format="1">
  <advance width="1228"/>
  <outline>
    <contour>
      <point x="409" y="1595"/>
      <point x="339" y="1573"/>
      <point x="264" y="1510" type="curve" smooth="yes"/>
      <point x="239" y="1489"/>
      <point x="237" y="1447"/>
      <point x="256" y="1407" type="curve" smooth="yes"/>
      <point x="277" y="1363"/>
      <point x="308" y="1341"/>
      <point x="338" y="1357" type="curve" smooth="yes"/>
      <point x="380" y="1379"/>
      <point x="424" y="1390"/>
      <point x="462" y="1390" type="curve" smooth="yes"/>
      <point x="560" y="1390"/>
      <point x="649" y="1327"/>
      <point x="760" y="1327" type="curve" smooth="yes"/>
      <point x="820" y="1327"/>
      <point x="890" y="1349"/>
      <point x="965" y="1412" type="curve" smooth="yes"/>
      <point x="990" y="1433"/>
      <point x="992" y="1475"/>
      <point x="973" y="1515" type="curve" smooth="yes"/>
      <point x="952" y="1559"/>
      <point x="921" y="1581"/>
      <point x="891" y="1565" type="curve" smooth="yes"/>
      <point x="849" y="1543"/>
      <point x="805" y="1532"/>
      <point x="767" y="1532" type="curve" smooth="yes"/>
      <point x="668" y="1532"/>
      <point x="579" y="1595"/>
      <point x="469" y="1595" type="curve" smooth="yes"/>
    </contour>
    <contour>
      <point x="614" y="1187" type="move" name="_top"/>
    </contour>
  </outline>
</glyph>
